<svg width="42" height="41" viewBox="0 0 42 41" fill="none" xmlns="http://www.w3.org/2000/svg">
<g clip-path="url(#clip0_146_22)">
<path d="M10.0729 12.0066C9.89306 11.9166 9.71319 11.8941 9.53332 11.9391C9.35345 11.9841 9.21855 12.0515 9.12862 12.1415C8.13933 13.9401 7.86953 16.1885 8.3192 18.8866C8.40914 19.0664 8.52156 19.2013 8.65646 19.2913C8.79136 19.3812 8.94875 19.4037 9.12862 19.3587C9.30849 19.3137 9.46587 19.2238 9.60077 19.0889C9.73568 18.954 9.75816 18.7966 9.66822 18.6167C9.21855 16.2784 9.44339 14.3449 10.3427 12.816C10.4327 12.726 10.4552 12.5911 10.4102 12.4113C10.3652 12.2314 10.2528 12.0965 10.0729 12.0066ZM41.2353 29.274L40.1561 25.7666L41.2353 23.0685C41.2353 22.8886 41.2128 22.7088 41.1678 22.5289C41.1229 22.349 41.0104 22.2141 40.8306 22.1242C39.8413 21.7645 38.897 21.4497 37.9976 21.1799C38.5372 19.4711 38.852 17.8073 38.942 16.1885C39.0319 14.21 38.7621 12.5012 38.1325 11.0622C37.3231 8.81387 35.9067 7.19505 33.8831 6.20577C31.8596 5.21649 29.6787 4.85675 27.3404 5.12655C25.0021 5.39636 22.8886 6.2957 21 7.82459C19.2013 6.38564 17.1553 5.50877 14.862 5.194C12.5686 4.87923 10.4327 5.17152 8.45411 6.07087C6.47554 6.97021 5.03659 8.40917 4.13724 10.3877C3.05803 12.6361 2.78822 15.3341 3.32783 18.4818C3.41777 18.6617 3.53018 18.7966 3.66509 18.8866C3.79999 18.9765 3.95737 18.999 4.13724 18.954C4.31711 18.909 4.45201 18.8191 4.54195 18.6842C4.63188 18.5493 4.67685 18.3919 4.67685 18.212C4.13724 15.3341 4.36208 12.9059 5.35136 10.9273C6.25071 9.12864 7.59973 7.86956 9.39842 7.15008C11.1971 6.4306 13.1307 6.25074 15.1992 6.61047C17.2677 6.97021 19.0664 7.82459 20.5953 9.17361C20.6852 9.26355 20.8201 9.30851 21 9.30851C21.1799 9.30851 21.3148 9.26355 21.4047 9.17361C23.1135 7.73466 25.1145 6.85779 27.4078 6.54302C29.7012 6.22825 31.7472 6.56551 33.5459 7.55479C35.7043 8.81387 37.0084 10.7475 37.458 13.3556C37.8178 15.6039 37.548 18.1221 36.6486 20.9101C33.9506 20.2805 31.2525 20.0557 28.5545 20.2356C27.0256 20.4154 24.7772 20.8201 21.8094 21.4497C19.3812 21.8994 17.5375 22.2141 16.2784 22.394C14.0301 22.6638 11.8716 22.7537 9.80313 22.6638C7.19502 22.4839 4.45201 21.9443 1.57411 21.045C1.3043 21.045 1.07947 21.1349 0.899596 21.3148C0.719727 21.4947 0.674759 21.7195 0.764694 21.9893L2.11371 25.7666L0.899596 28.0599C0.719727 28.2398 0.674759 28.4421 0.764694 28.6669C0.854629 28.8918 1.0345 29.0042 1.3043 29.0042C3.10299 29.5438 4.81175 29.9485 6.43058 30.2183C6.61045 30.2183 6.79032 30.1733 6.97018 30.0834C7.15005 29.9935 7.23999 29.8586 7.23999 29.6787C7.23999 29.4988 7.19502 29.3415 7.10509 29.2066C7.01515 29.0716 6.88025 28.9592 6.70038 28.8693C5.35136 28.6894 3.91241 28.3747 2.38352 27.925L3.32783 26.1713C3.41777 25.9914 3.46273 25.8115 3.46273 25.6316L2.51842 22.7987C5.21646 23.4283 7.7796 23.833 10.2078 24.0128C12.2763 24.1028 14.3898 24.0128 16.5482 23.743C17.8073 23.5632 19.5835 23.2259 21.8769 22.7313C24.1702 22.2366 25.9464 21.9443 27.2055 21.8544C29.184 21.5846 31.0727 21.5396 32.8714 21.7195C35.0298 21.8994 37.3231 22.394 39.7514 23.2034L38.8071 25.4967C38.8071 25.5867 38.8071 25.7216 38.8071 25.9015L39.4816 28.3297C37.0533 27.6102 34.76 27.1605 32.6016 26.9807C30.7129 26.8008 28.7793 26.8458 26.8008 27.1156C25.5417 27.2055 23.788 27.4978 21.5396 27.9924C19.2912 28.4871 17.5825 28.8243 16.4133 29.0042C14.3448 29.274 12.3663 29.3639 10.4776 29.274C10.2078 29.274 10.0055 29.4089 9.87058 29.6787C9.73568 29.9485 9.75816 30.1733 9.93803 30.3532L10.0729 30.4881C12.5911 32.7365 15.514 34.3103 18.8416 35.2097C20.2805 35.5694 21.7195 35.5694 23.1584 35.2097C26.486 34.3103 29.4089 32.7365 31.927 30.4881C32.017 30.3982 32.0844 30.2633 32.1294 30.0834C32.1744 29.9035 32.1294 29.7462 31.9945 29.6113C31.8596 29.4764 31.7022 29.3864 31.5223 29.3415C31.3425 29.2965 31.1626 29.3639 30.9827 29.5438C28.6444 31.6123 25.9014 33.0513 22.7537 33.8607C21.5846 34.1305 20.4154 34.1305 19.2463 33.8607C16.7281 33.2311 14.4348 32.1519 12.3663 30.623C13.9851 30.623 15.6938 30.4881 17.4925 30.2183C18.5718 30.1284 20.0557 29.8586 21.9443 29.4089C24.2826 28.8693 26.0813 28.5545 27.3404 28.4646C29.3189 28.1948 31.2975 28.1498 33.2761 28.3297C35.5244 28.5995 37.8627 29.1841 40.291 30.0834C40.5608 30.1733 40.8081 30.1284 41.0329 29.9485C41.2578 29.7686 41.3252 29.5438 41.2353 29.274Z" fill="#B40101"/>
</g>
<defs>
<clipPath id="clip0_146_22">
<rect width="40.4894" height="40.4706" fill="white" transform="matrix(1 0 0 -1 0.720703 40.4707)"/>
</clipPath>
</defs>
</svg>
