<svg width="43" height="43" viewBox="0 0 43 43" fill="none" xmlns="http://www.w3.org/2000/svg">
<g id="Icon" clip-path="url(#clip0_326_912)">
<path id="Vector" d="M35.0894 6.5802C34.2494 4.43353 32.8727 2.87019 30.9594 1.89019C29.046 0.910194 26.946 0.560196 24.6594 0.840195C22.3727 1.12019 20.296 1.96019 18.4294 3.3602C16.5627 1.96019 14.486 1.12019 12.1994 0.840195C9.9127 0.560196 7.8127 0.910194 5.89936 1.89019C3.98603 2.87019 2.60936 4.43353 1.76936 6.5802C1.0227 8.44686 0.812698 10.6169 1.13936 13.0902C1.46603 15.5635 2.32936 17.9669 3.72936 20.3002C5.2227 22.9135 7.08936 25.0602 9.32936 26.7402C8.76936 27.3935 8.4427 28.2569 8.34936 29.3302C8.25603 30.4035 8.39603 31.3602 8.76936 32.2002C9.1427 33.0402 9.65603 33.6935 10.3094 34.1602C10.9627 34.6269 11.7094 34.8135 12.5494 34.7202C14.136 34.5335 15.396 34.0202 16.3294 33.1802C16.516 33.3669 16.7494 33.5535 17.0294 33.7402C17.0294 34.3002 17.216 35.0702 17.5894 36.0502C17.9627 37.0302 18.196 37.8469 18.2894 38.5002C18.3827 39.5269 18.196 40.6002 17.7294 41.7202C17.636 42.0002 17.6594 42.2335 17.7994 42.4202C17.9394 42.6069 18.1727 42.7002 18.4994 42.7002C18.826 42.7002 19.036 42.5602 19.1294 42.2802C19.596 40.8802 19.736 39.5735 19.5494 38.3602C19.5494 37.6135 19.316 36.6802 18.8494 35.5602L18.4294 34.0202C18.9894 33.9269 19.456 33.6702 19.8294 33.2502C20.2027 32.8302 20.3894 32.3402 20.3894 31.7802V31.0802C20.3894 30.8935 20.3194 30.7302 20.1794 30.5902C20.0394 30.4502 19.876 30.3802 19.6894 30.3802C19.5027 30.3802 19.3394 30.4502 19.1994 30.5902C19.0594 30.7302 18.9894 30.8935 18.9894 31.0802V31.7802C18.9894 31.9669 18.9194 32.1535 18.7794 32.3402C18.6394 32.5269 18.4294 32.6202 18.1494 32.6202C17.8694 32.6202 17.636 32.5269 17.4494 32.3402C17.2627 32.1535 17.1694 31.9669 17.1694 31.7802V28.2802C17.1694 28.0002 17.2627 27.7902 17.4494 27.6502C17.636 27.5102 17.846 27.4402 18.0794 27.4402C18.3127 27.4402 18.5227 27.5102 18.7094 27.6502C18.896 27.7902 19.0127 27.9769 19.0594 28.2102C19.106 28.4435 19.1994 28.6069 19.3394 28.7002C19.4794 28.7935 19.666 28.8402 19.8994 28.8402C20.1327 28.8402 20.296 28.7469 20.3894 28.5602C20.576 28.0935 20.996 27.6969 21.6494 27.3702C22.3027 27.0435 23.0494 26.8335 23.8894 26.7402C24.7294 26.6469 25.3827 26.9502 25.8494 27.6502C26.316 28.3502 26.5494 29.1669 26.5494 30.1002C26.5494 31.0335 26.316 31.8269 25.8494 32.4802C25.3827 33.1335 24.7294 33.4135 23.8894 33.3202C23.4227 33.2269 23.0027 33.1335 22.6294 33.0402C22.4427 32.9469 22.256 32.9469 22.0694 33.0402C21.8827 33.1335 21.766 33.2735 21.7194 33.4602C21.6727 33.6469 21.696 33.8335 21.7894 34.0202C21.8827 34.2069 22.0227 34.3469 22.2094 34.4402C22.676 34.5335 23.1894 34.6269 23.7494 34.7202C25.2427 34.8135 26.3627 34.2535 27.1094 33.0402C27.7627 32.0135 28.0427 30.8702 27.9494 29.6102C27.856 28.3502 27.436 27.3002 26.6894 26.4602C25.9427 25.6202 24.9627 25.2469 23.7494 25.3402C22.1627 25.5269 20.9027 26.0402 19.9694 26.8802C19.5027 26.3202 18.896 26.0402 18.1494 26.0402C17.4027 26.0402 16.796 26.3202 16.3294 26.8802C15.676 26.2269 14.7894 25.7602 13.6694 25.4802C13.4827 25.4802 13.296 25.5269 13.1094 25.6202C12.9227 25.7135 12.806 25.8535 12.7594 26.0402C12.7127 26.2269 12.736 26.4135 12.8294 26.6002C12.9227 26.7869 13.0627 26.8802 13.2494 26.8802C14.556 27.1602 15.396 27.6735 15.7694 28.4202V31.6402C15.5827 32.0135 15.1627 32.3635 14.5094 32.6902C13.856 33.0169 13.156 33.2269 12.4094 33.3202C11.2894 33.4135 10.496 32.9002 10.0294 31.7802C9.74936 30.9402 9.67936 30.0769 9.81936 29.1902C9.95936 28.3035 10.3094 27.6269 10.8694 27.1602C11.056 26.9735 11.1494 26.7869 11.1494 26.6002C11.1494 26.4135 11.056 26.2269 10.8694 26.0402L10.7294 25.9002C9.23603 24.8735 7.92936 23.7069 6.80936 22.4002C4.75603 19.8802 3.4027 17.0335 2.74936 13.8602C2.2827 11.3402 2.3527 9.1702 2.95936 7.3502C3.56603 5.53019 4.70936 4.1302 6.38936 3.1502C8.06936 2.1702 10.006 1.84353 12.1994 2.1702C14.3927 2.49686 16.3294 3.3602 18.0094 4.7602C18.1027 4.94686 18.2427 5.0402 18.4294 5.0402C18.616 5.0402 18.756 4.94686 18.8494 4.7602C20.5294 3.3602 22.466 2.49686 24.6594 2.1702C26.8527 1.84353 28.7894 2.1702 30.4694 3.1502C32.1494 4.1302 33.2927 5.53019 33.8994 7.3502C34.506 9.1702 34.576 11.3402 34.1094 13.8602C33.736 15.9135 33.036 17.8269 32.0094 19.6002C30.9827 21.3735 29.676 22.9602 28.0894 24.3602C27.996 24.5469 27.9494 24.7335 27.9494 24.9202C27.9494 25.1069 27.996 25.2702 28.0894 25.4102C28.1827 25.5502 28.3227 25.6202 28.5094 25.6202C28.696 25.6202 28.8827 25.5735 29.0694 25.4802C31.0294 23.7069 32.616 21.5602 33.8294 19.0402C34.9494 16.8935 35.6027 14.6769 35.7894 12.3902C35.976 10.1035 35.7427 8.16686 35.0894 6.5802ZM25.0094 8.5402C23.9827 7.98019 22.886 7.74686 21.7194 7.84019C20.5527 7.93353 19.456 8.30686 18.4294 8.96019C17.496 8.30686 16.4227 7.93353 15.2094 7.84019C13.996 7.74686 12.876 7.98019 11.8494 8.5402C10.7294 9.19353 10.006 10.1969 9.67936 11.5502C9.3527 12.9035 9.4227 14.3269 9.88936 15.8202C10.356 17.3135 11.056 18.6202 11.9894 19.7402C13.3894 21.4202 15.1627 22.4935 17.3094 22.9602C18.056 23.1469 18.8027 23.1469 19.5494 22.9602C21.696 22.4935 23.4694 21.4202 24.8694 19.7402C25.8027 18.6202 26.5027 17.3135 26.9694 15.8202C27.436 14.3269 27.5294 12.9035 27.2494 11.5502C26.9694 10.1969 26.2227 9.19353 25.0094 8.5402ZM25.8494 14.5602C25.5694 16.0535 24.916 17.4535 23.8894 18.7602C22.676 20.1602 21.136 21.1402 19.2694 21.7002C18.7094 21.7935 18.196 21.7935 17.7294 21.7002C15.7694 21.1402 14.1827 20.1602 12.9694 18.7602C11.9427 17.4535 11.2894 16.0535 11.0094 14.5602C10.636 12.7869 10.846 11.4335 11.6394 10.5002C12.4327 9.56686 13.4594 9.12353 14.7194 9.1702C15.9794 9.21686 17.076 9.66019 18.0094 10.5002C18.1027 10.5935 18.2427 10.6402 18.4294 10.6402C18.616 10.6402 18.756 10.5935 18.8494 10.5002C19.7827 9.66019 20.8794 9.21686 22.1394 9.1702C23.3994 9.12353 24.426 9.56686 25.2194 10.5002C26.0127 11.4335 26.2227 12.7869 25.8494 14.5602Z" fill="#B40101"/>
</g>
<defs>
<clipPath id="clip0_326_912">
<rect width="42.02" height="42" fill="white" transform="matrix(1 0 0 -1 0.980469 42.7002)"/>
</clipPath>
</defs>
</svg>
