<svg width="327" height="42" viewBox="0 0 327 42" fill="none" xmlns="http://www.w3.org/2000/svg">
<path d="M56.5349 2.44279C55.4803 3.1242 54.3771 3.70015 53.2252 4.17065C52.0895 4.62493 50.9133 4.98997 49.6965 5.26577C48.4797 5.54158 47.2304 5.73627 45.9487 5.84984C44.667 5.96341 43.3691 6.02019 42.0549 6.02019C40.4001 6.02019 38.656 5.93907 36.8227 5.77683C34.9894 5.59837 33.1642 5.41179 31.3471 5.2171C29.5462 5.02241 27.8021 4.84395 26.1148 4.68171C24.4275 4.50324 22.9025 4.41401 21.5396 4.41401C19.5441 4.41401 17.727 4.6736 16.0884 5.19277C14.4497 5.69571 13.0464 6.41768 11.8782 7.35868C10.7101 8.28345 9.80154 9.40291 9.15258 10.7171C8.51984 12.015 8.20347 13.467 8.20347 15.0732C8.20347 16.1927 8.39005 17.2067 8.7632 18.1152C9.15258 19.0075 9.69609 19.762 10.3937 20.3785C11.1076 20.995 11.9593 21.4736 12.949 21.8143C13.9387 22.1388 15.0338 22.301 16.2344 22.301C17.2727 22.301 18.3435 22.1793 19.4467 21.936C20.55 21.6764 21.637 21.2951 22.7078 20.7922L23.2188 21.79C22.1318 22.4227 20.8745 22.9256 19.4467 23.2988C18.0352 23.6719 16.6075 23.8585 15.1636 23.8585C13.9143 23.8585 12.7138 23.6801 11.5619 23.3231C10.4099 22.9662 9.37972 22.4308 8.47117 21.717C7.57885 20.9869 6.86499 20.0783 6.3296 18.9913C5.7942 17.8881 5.52651 16.5983 5.52651 15.1219C5.52651 13.6617 5.74553 12.3557 6.18358 11.2038C6.62163 10.0356 7.22192 9.00542 7.98445 8.11309C8.74698 7.20455 9.6393 6.43391 10.6614 5.80117C11.6835 5.16843 12.7787 4.64926 13.9468 4.24366C15.1311 3.82183 16.3561 3.52169 17.6215 3.34323C18.887 3.14854 20.1444 3.05119 21.3936 3.05119C22.8862 3.05119 24.4843 3.14043 26.1878 3.31889C27.9076 3.49735 29.6598 3.69204 31.4444 3.90296C33.2291 4.09764 35.0218 4.28422 36.8227 4.46268C38.6236 4.64115 40.3676 4.73038 42.0549 4.73038C43.3204 4.73038 44.5697 4.68171 45.8027 4.58436C47.0357 4.4708 48.2282 4.28422 49.3801 4.02464C50.5482 3.76505 51.6677 3.42435 52.7385 3.00252C53.8255 2.56447 54.8638 2.02097 55.8535 1.372L56.5349 2.44279ZM39.451 8.16177C38.0719 9.81662 36.847 11.5526 35.7762 13.3697C34.7217 15.1706 33.7401 16.9795 32.8316 18.7966C31.9392 20.6137 31.0875 22.4146 30.2763 24.1992C29.4651 25.9677 28.6214 27.655 27.7453 29.2611C26.8692 30.8511 25.9282 32.3275 24.9223 33.6903C23.9327 35.0369 22.797 36.205 21.5153 37.1947C20.2498 38.1844 18.7978 38.955 17.1591 39.5066C15.5367 40.0745 13.671 40.3584 11.5619 40.3584C9.69609 40.3584 8.04123 40.115 6.59729 39.6283C5.16958 39.1578 3.969 38.5007 2.99556 37.6571C2.02211 36.8296 1.28392 35.8562 0.780975 34.7367C0.27803 33.6011 0.0265575 32.3761 0.0265575 31.062C0.0265575 30.5591 0.0590056 30.0804 0.123902 29.6262C0.188798 29.1719 0.286142 28.7582 0.415935 28.385L1.63274 28.7501C1.53539 29.0746 1.45427 29.4396 1.38938 29.8452C1.32448 30.2346 1.29203 30.6402 1.29203 31.062C1.29203 32.4086 1.57595 33.5848 2.14379 34.5907C2.71164 35.5966 3.45794 36.4322 4.38271 37.0973C5.30748 37.7625 6.36205 38.2574 7.5464 38.5818C8.73076 38.9225 9.93945 39.0929 11.1725 39.0929C12.9571 39.0929 14.539 38.7846 15.918 38.1681C17.3133 37.5516 18.5787 36.7161 19.7144 35.6615C20.8501 34.5907 21.8803 33.3415 22.8051 31.9138C23.7461 30.486 24.6547 28.9529 25.5308 27.3142C26.4068 25.6756 27.2829 23.9721 28.159 22.2037C29.0514 20.4353 30.0086 18.6831 31.0307 16.9471C32.069 15.2111 33.2047 13.54 34.4377 11.9339C35.6708 10.3115 37.0823 8.83506 38.6722 7.50469L39.451 8.16177ZM41.3492 27.4846C42.2091 26.3165 43.1014 25.2457 44.0262 24.2722C44.9509 23.2826 45.8838 22.4308 46.8248 21.717C47.7658 21.0031 48.6906 20.4515 49.5991 20.0621C50.5239 19.6565 51.4162 19.4537 52.2761 19.4537C52.8601 19.4537 53.3388 19.5429 53.7119 19.7214C54.1013 19.8999 54.4014 20.1351 54.6123 20.4271C54.8395 20.703 54.9936 21.0112 55.0747 21.3519C55.1721 21.6926 55.2207 22.0333 55.2207 22.374C55.2207 22.9581 55.0991 23.5908 54.8557 24.2722C54.6123 24.9374 54.3041 25.6351 53.9309 26.3651C53.574 27.0952 53.1846 27.8415 52.7628 28.6041C52.341 29.3666 51.9435 30.1129 51.5703 30.843C51.2134 31.5731 50.9133 32.2869 50.6699 32.9845C50.4265 33.666 50.3049 34.3068 50.3049 34.9071C50.3049 35.2803 50.386 35.6291 50.5482 35.9535C50.7267 36.2618 51.0349 36.4159 51.473 36.4159C51.9922 36.4159 52.5681 36.1563 53.2009 35.6372C53.8336 35.1018 54.4744 34.4285 55.1234 33.6173C55.7886 32.7899 56.4457 31.8732 57.0946 30.8673C57.7598 29.8614 58.3763 28.8799 58.9442 27.9226L59.8203 28.6041C59.6418 28.8474 59.3984 29.2449 59.0902 29.7965C58.7819 30.3319 58.4169 30.9403 57.9951 31.6217C57.5895 32.2869 57.1271 32.9764 56.6079 33.6903C56.105 34.4042 55.5615 35.0612 54.9774 35.6615C54.4095 36.2456 53.8093 36.7242 53.1765 37.0973C52.5438 37.4867 51.9029 37.6814 51.254 37.6814C50.8321 37.6814 50.4103 37.6327 49.9885 37.5354C49.5667 37.438 49.1854 37.2596 48.8447 37C48.504 36.7404 48.2282 36.3916 48.0173 35.9535C47.8064 35.4993 47.7009 34.9314 47.7009 34.25C47.7009 33.455 47.8307 32.652 48.0903 31.8408C48.3661 31.0133 48.6987 30.2021 49.0881 29.4071C49.4937 28.5959 49.9317 27.8172 50.4022 27.0709C50.8727 26.3084 51.3026 25.5945 51.692 24.9293C52.0976 24.2641 52.4302 23.6638 52.6898 23.1284C52.9656 22.5768 53.1035 22.1144 53.1035 21.7413C53.1035 21.0761 52.779 20.7435 52.1301 20.7435C51.2053 20.7435 50.2237 21.0518 49.1854 21.6683C48.1633 22.2686 47.1331 23.0554 46.0947 24.0289C45.0564 25.0023 44.0343 26.0974 43.0284 27.3142C42.0225 28.5148 41.0815 29.7154 40.2054 30.916L36.5063 37.8761L34.2917 37C36.3522 32.5059 38.3315 28.0687 40.2297 23.6882C42.1442 19.2915 44.1073 14.9515 46.1191 10.6684C46.4273 10.0032 46.7842 9.28122 47.1898 8.50247C47.6117 7.72372 48.0578 6.94496 48.5283 6.16621C49.0151 5.38745 49.5342 4.64115 50.0858 3.92729C50.6375 3.21343 51.2053 2.5807 51.7894 2.02908C52.3734 1.47746 52.9737 1.03941 53.5902 0.714931C54.223 0.374226 54.8557 0.203874 55.4884 0.203874C56.2023 0.203874 56.7539 0.406674 57.1433 0.812275C57.5489 1.20165 57.7517 1.76138 57.7517 2.49146C57.7517 3.25399 57.5489 4.12198 57.1433 5.09542C56.7377 6.05264 56.1942 7.06664 55.5128 8.13743C54.8314 9.20822 54.0364 10.3115 53.1278 11.4471C52.2355 12.5828 51.2864 13.7104 50.2805 14.8298C49.2909 15.9493 48.285 17.0363 47.2629 18.0909C46.2407 19.1292 45.2592 20.0945 44.3182 20.9869L41.3492 27.4846ZM55.6101 1.49368C54.88 1.49368 54.2067 1.77761 53.5902 2.34545C52.9899 2.89706 52.3329 3.81372 51.619 5.09542C50.9052 6.37712 50.0858 8.0482 49.1611 10.1087C48.2363 12.1691 47.1087 14.7001 45.7784 17.7015C47.563 15.9655 49.1205 14.2863 50.4509 12.6639C51.7975 11.0253 52.9169 9.5327 53.8093 8.1861C54.7016 6.83951 55.3668 5.67138 55.8048 4.68171C56.2591 3.67582 56.4862 2.92951 56.4862 2.44279C56.4862 2.15076 56.4051 1.92362 56.2429 1.76138C56.0806 1.58292 55.8697 1.49368 55.6101 1.49368ZM60.818 31.4514C60.7856 31.6461 60.7613 31.8408 60.745 32.0354C60.7288 32.2301 60.7207 32.4248 60.7207 32.6195C60.7207 33.2036 60.8018 33.7633 60.9641 34.2987C61.1425 34.8179 61.394 35.2803 61.7185 35.6859C62.0592 36.0752 62.4729 36.3835 62.9596 36.6106C63.4626 36.8378 64.0304 36.9513 64.6631 36.9513C66.7885 36.9513 68.8408 36.2294 70.8202 34.7854C72.7995 33.3415 74.7707 31.0539 76.7338 27.9226L77.5612 28.6527C76.4905 30.4374 75.4035 31.9462 74.3002 33.1792C73.197 34.396 72.0937 35.3857 70.9905 36.1482C69.9035 36.9108 68.8327 37.4624 67.7782 37.8031C66.7236 38.1438 65.7177 38.3141 64.7605 38.3141C64.0628 38.3141 63.3247 38.2168 62.5459 38.0221C61.7671 37.8274 61.0452 37.5029 60.38 37.0487C59.731 36.5944 59.1956 35.986 58.7738 35.2235C58.3358 34.4609 58.1167 33.5118 58.1167 32.3761C58.1167 31.1593 58.3276 29.9912 58.7495 28.8718C59.1551 27.7361 59.6905 26.6815 60.3557 25.7081C61.0208 24.7346 61.7834 23.8504 62.6432 23.0554C63.5031 22.2442 64.3711 21.5547 65.2472 20.9869C66.1395 20.419 67.0075 19.981 67.8512 19.6727C68.6948 19.3482 69.4411 19.186 70.0901 19.186C70.5119 19.186 70.9418 19.2509 71.3799 19.3807C71.8179 19.5105 72.2073 19.7133 72.548 19.9891C72.9049 20.2649 73.1889 20.6299 73.3998 21.0842C73.6269 21.5385 73.7405 22.082 73.7405 22.7147C73.7405 23.5746 73.5377 24.3858 73.1321 25.1483C72.7427 25.8946 72.2154 26.5923 71.5502 27.2412C70.8851 27.874 70.1144 28.4499 69.2383 28.9691C68.3622 29.472 67.4456 29.902 66.4883 30.2589C65.5311 30.6158 64.5658 30.8998 63.5924 31.1107C62.6189 31.3216 61.6941 31.4352 60.818 31.4514ZM61.0127 30.4049C62.0997 30.2914 63.1219 30.0642 64.0791 29.7235C65.0363 29.3828 65.9124 28.9691 66.7074 28.4824C67.5023 27.9794 68.2081 27.4359 68.8246 26.8519C69.4573 26.2678 69.9846 25.6756 70.4064 25.0753C70.8283 24.475 71.1528 23.8991 71.3799 23.3475C71.607 22.7959 71.7206 22.301 71.7206 21.863C71.7206 21.4249 71.5989 21.0761 71.3556 20.8165C71.1284 20.5569 70.8526 20.4271 70.5281 20.4271C69.8143 20.4271 69.0112 20.6867 68.1189 21.2059C67.2265 21.7088 66.3342 22.4146 65.4419 23.3231C64.5496 24.2155 63.7059 25.27 62.9109 26.4868C62.1322 27.7036 61.4994 29.0097 61.0127 30.4049ZM132.244 2.00474C131.985 2.32922 131.733 2.64559 131.49 2.95385C131.263 3.24588 131.036 3.55414 130.809 3.87862C132.447 4.47891 133.769 5.22521 134.775 6.11754C135.781 6.99364 136.56 7.91841 137.112 8.89185C137.663 9.84907 138.028 10.7982 138.207 11.7392C138.401 12.6639 138.499 13.467 138.499 14.1484C138.499 15.1057 138.337 16.0223 138.012 16.8984C137.704 17.7583 137.282 18.5452 136.747 19.259C136.227 19.9729 135.619 20.5975 134.921 21.1329C134.224 21.6521 133.494 22.0495 132.731 22.3254C134.305 23.6233 135.473 25.0672 136.235 26.6572C137.014 28.2471 137.404 29.8533 137.404 31.4757C137.404 32.8385 137.12 34.1283 136.552 35.3451C136 36.562 135.246 37.6246 134.289 38.5332C133.331 39.4417 132.196 40.1637 130.882 40.6991C129.584 41.2345 128.196 41.5022 126.72 41.5022C125.438 41.5022 124.254 41.2913 123.167 40.8694C122.096 40.4638 121.131 39.9041 120.271 39.1902C119.427 38.4764 118.689 37.6327 118.056 36.6593C117.44 35.6859 116.953 34.6475 116.596 33.5443L117.813 33.1792C118.413 35.1261 119.403 36.6268 120.782 37.6814C122.161 38.7522 123.824 39.2876 125.771 39.2876C126.972 39.2876 128.115 39.0605 129.202 38.6062C130.306 38.1681 131.271 37.5678 132.098 36.8053C132.926 36.0266 133.583 35.118 134.07 34.0797C134.556 33.0251 134.8 31.8894 134.8 30.6726C134.8 29.8452 134.686 29.0583 134.459 28.312C134.232 27.5657 133.932 26.86 133.559 26.1948C133.185 25.5296 132.764 24.9212 132.293 24.3696C131.839 23.8017 131.368 23.2988 130.882 22.8607C130.444 22.9419 130.005 23.0068 129.567 23.0554C129.129 23.1041 128.699 23.1284 128.278 23.1284C127.694 23.1284 127.093 23.0879 126.477 23.0068C125.876 22.9094 125.325 22.7715 124.822 22.5931C124.335 22.4146 123.93 22.1793 123.605 21.8873C123.297 21.5953 123.143 21.2383 123.143 20.8165C123.143 20.7192 123.167 20.5813 123.216 20.4028C123.264 20.2081 123.362 20.0215 123.508 19.8431C123.67 19.6646 123.905 19.5105 124.213 19.3807C124.522 19.2347 124.944 19.1617 125.479 19.1617C125.982 19.1617 126.485 19.2185 126.988 19.332C127.507 19.4456 128.002 19.5997 128.472 19.7944C128.943 19.9729 129.397 20.1838 129.835 20.4271C130.273 20.6543 130.671 20.8895 131.028 21.1329C131.612 20.8733 132.196 20.5245 132.78 20.0864C133.38 19.6322 133.924 19.0805 134.41 18.4316C134.897 17.7826 135.295 17.0363 135.603 16.1927C135.911 15.349 136.065 14.3999 136.065 13.3453C136.065 11.4958 135.554 9.83284 134.532 8.35645C133.51 6.88007 131.993 5.7525 129.981 4.97374C129.008 6.33656 128.099 7.69127 127.255 9.03786C126.412 10.3845 125.625 11.7311 124.895 13.0777C124.165 14.4242 123.475 15.7708 122.826 17.1174C122.194 18.464 121.585 19.8269 121.001 21.2059C119.655 24.3534 118.34 27.0466 117.059 29.2855C115.777 31.5082 114.406 33.3253 112.946 34.7367C111.502 36.1482 109.92 37.1785 108.2 37.8274C106.497 38.4926 104.542 38.8252 102.335 38.8252C100.632 38.8252 99.1636 38.5413 97.9305 37.9734C96.6975 37.4218 95.6835 36.6593 94.8885 35.6859C94.0936 34.7124 93.5014 33.5848 93.112 32.3031C92.7388 31.0052 92.5523 29.6262 92.5523 28.166C92.5523 26.5436 92.8119 24.8725 93.331 23.1528C93.8502 21.4168 94.6208 19.6889 95.6429 17.9692C96.2919 16.8822 97.095 15.7546 98.0522 14.5865C99.0094 13.4021 100.105 12.2421 101.338 11.1064C102.571 9.95452 103.942 8.86751 105.45 7.8454C106.975 6.80706 108.614 5.90662 110.366 5.14409C112.135 4.36534 114.017 3.74883 116.012 3.29455C118.024 2.82406 120.141 2.58881 122.364 2.58881C123.727 2.58881 124.968 2.66182 126.087 2.80783C127.223 2.93762 128.269 3.13231 129.227 3.3919C129.6 3.01874 129.973 2.64559 130.346 2.27244C130.736 1.89929 131.133 1.52613 131.539 1.15298L132.244 2.00474ZM122.559 12.1042C123.419 10.6765 124.311 9.33801 125.236 8.08876C126.177 6.82328 127.182 5.60648 128.253 4.43835C127.637 4.29233 126.98 4.17876 126.282 4.09764C125.601 4.01652 124.879 3.97596 124.116 3.97596C121.666 3.97596 119.249 4.31667 116.864 4.99808C114.495 5.66326 112.232 6.59615 110.074 7.79673C107.933 8.9973 105.945 10.425 104.112 12.0799C102.279 13.7347 100.689 15.5356 99.342 17.4825C98.0117 19.4131 96.9652 21.4574 96.2027 23.6152C95.4564 25.773 95.0832 27.9632 95.0832 30.1859C95.0832 31.2891 95.2292 32.295 95.5213 33.2036C95.8295 34.0959 96.2838 34.8665 96.8841 35.5155C97.4844 36.1482 98.2226 36.6431 99.0987 37C99.991 37.3407 101.013 37.5111 102.165 37.5111C104.096 37.5111 105.783 37.1541 107.227 36.4403C108.671 35.7102 109.953 34.7205 111.072 33.4713C112.208 32.222 113.23 30.77 114.138 29.1151C115.047 27.444 115.931 25.6675 116.791 23.7855C117.667 21.9035 118.559 19.9648 119.468 17.9692C120.376 15.9736 121.407 14.0186 122.559 12.1042ZM129.373 21.6196C129.129 21.4411 128.837 21.2789 128.497 21.1329C128.172 20.9706 127.831 20.8409 127.475 20.7435C127.118 20.6299 126.761 20.5407 126.404 20.4758C126.047 20.4109 125.739 20.3785 125.479 20.3785C125.025 20.3785 124.733 20.4353 124.603 20.5488C124.489 20.6462 124.433 20.7354 124.433 20.8165C124.433 20.9625 124.538 21.0923 124.749 21.2059C124.976 21.3195 125.252 21.4249 125.576 21.5223C125.917 21.6034 126.29 21.6683 126.696 21.717C127.101 21.7656 127.499 21.79 127.888 21.79C128.067 21.79 128.269 21.7818 128.497 21.7656C128.724 21.7494 129.016 21.7007 129.373 21.6196ZM159.282 1.59103C159.85 1.59103 160.32 1.72893 160.693 2.00474C161.083 2.28055 161.277 2.7835 161.277 3.51358C161.277 4.01652 161.172 4.61681 160.961 5.31445C160.766 6.01208 160.49 6.77461 160.134 7.60204C159.793 8.41324 159.387 9.27311 158.917 10.1817C158.446 11.074 157.935 11.9663 157.384 12.8586C156.848 13.7509 156.28 14.6189 155.68 15.4626C155.096 16.3062 154.512 17.085 153.928 17.7988C152.76 19.2428 151.746 20.4596 150.886 21.4493C150.042 22.4389 149.312 23.2826 148.696 23.9802C148.079 24.6616 147.56 25.2213 147.138 25.6594C146.716 26.0812 146.343 26.4463 146.019 26.7545C145.694 27.0628 145.394 27.3467 145.118 27.6063C144.842 27.8496 144.558 28.1254 144.266 28.4337C144.137 29.0502 144.072 29.6424 144.072 30.2102C144.088 30.7619 144.096 31.2729 144.096 31.7434C144.096 33.1549 144.323 34.2014 144.777 34.8828C145.232 35.5642 145.873 35.9049 146.7 35.9049C147.252 35.9049 147.803 35.767 148.355 35.4912C148.923 35.1991 149.482 34.826 150.034 34.3717C150.586 33.9174 151.121 33.4064 151.64 32.8385C152.159 32.2545 152.646 31.6704 153.1 31.0863C153.571 30.486 153.993 29.9101 154.366 29.3585C154.739 28.8069 155.064 28.3282 155.339 27.9226L156.24 28.6041C156.191 28.669 156.029 28.9285 155.753 29.3828C155.493 29.8209 155.145 30.3563 154.707 30.989C154.269 31.6217 153.749 32.3031 153.149 33.0332C152.549 33.7471 151.9 34.4123 151.202 35.0288C150.505 35.6453 149.766 36.1563 148.988 36.562C148.225 36.9676 147.446 37.1704 146.651 37.1704C145.986 37.1704 145.345 37.0487 144.729 36.8053C144.128 36.5457 143.593 36.1482 143.123 35.6128C142.668 35.0612 142.295 34.3636 142.003 33.5199C141.727 32.6763 141.589 31.6623 141.589 30.4779C141.589 29.0015 141.76 27.4603 142.1 25.8541C142.457 24.2317 142.936 22.6093 143.536 20.9869C144.137 19.3482 144.842 17.734 145.654 16.144C146.465 14.554 147.325 13.0452 148.233 11.6175C149.158 10.1735 150.115 8.84318 151.105 7.62637C152.111 6.39335 153.092 5.33067 154.05 4.43835C155.023 3.54603 155.956 2.84839 156.848 2.34545C157.74 1.8425 158.552 1.59103 159.282 1.59103ZM144.704 26.2678C146.083 24.8401 147.414 23.3961 148.696 21.936C149.993 20.4596 151.202 19.0075 152.322 17.5798C153.457 16.1359 154.496 14.7406 155.437 13.394C156.378 12.0312 157.181 10.7495 157.846 9.54892C158.511 8.34834 159.03 7.25322 159.403 6.26355C159.777 5.27389 159.963 4.42212 159.963 3.70827C159.963 3.57847 159.898 3.40812 159.768 3.19721C159.639 2.97007 159.485 2.8565 159.306 2.8565C158.803 2.8565 158.138 3.1891 157.311 3.85428C156.483 4.51947 155.583 5.42802 154.609 6.57992C153.652 7.7156 152.654 9.04598 151.616 10.571C150.594 12.0961 149.628 13.7266 148.72 15.4626C147.811 17.1986 147 18.9913 146.286 20.8409C145.572 22.6904 145.045 24.4994 144.704 26.2678ZM166.266 15.4139C166.266 15.7384 166.185 16.0791 166.023 16.436C165.861 16.7767 165.65 17.085 165.39 17.3608C165.147 17.6366 164.871 17.8637 164.563 18.0422C164.254 18.2207 163.946 18.3099 163.638 18.3099C163.362 18.3099 163.151 18.2126 163.005 18.0179C162.859 17.807 162.786 17.5555 162.786 17.2635C162.786 17.0039 162.835 16.6956 162.932 16.3387C163.03 15.9818 163.176 15.6492 163.37 15.3409C163.565 15.0164 163.8 14.7406 164.076 14.5135C164.352 14.2863 164.668 14.1728 165.025 14.1728C165.366 14.1728 165.658 14.3026 165.901 14.5622C166.145 14.8217 166.266 15.1057 166.266 15.4139ZM161.715 20.8165C161.504 21.2383 161.204 21.7981 160.815 22.4957C160.442 23.1771 160.036 23.9315 159.598 24.759C159.16 25.5702 158.714 26.43 158.26 27.3386C157.805 28.2309 157.392 29.107 157.018 29.9669C156.662 30.8105 156.37 31.6055 156.142 32.3518C155.915 33.0981 155.802 33.7309 155.802 34.25C155.802 34.7205 155.899 35.045 156.094 35.2235C156.288 35.3857 156.564 35.4668 156.921 35.4668C157.586 35.4668 158.235 35.2478 158.868 34.8098C159.501 34.3717 160.125 33.8039 160.742 33.1062C161.375 32.3924 161.991 31.5812 162.591 30.6726C163.192 29.7641 163.792 28.8474 164.392 27.9226L165.268 28.6041C164.798 29.4477 164.263 30.3481 163.662 31.3054C163.078 32.2626 162.421 33.1549 161.691 33.9823C160.961 34.7935 160.158 35.4668 159.282 36.0022C158.406 36.5376 157.448 36.8053 156.41 36.8053C155.437 36.8053 154.69 36.5133 154.171 35.9292C153.652 35.3451 153.392 34.5907 153.392 33.666C153.392 32.5789 153.644 31.4433 154.147 30.2589C154.65 29.0746 155.274 27.9064 156.021 26.7545C156.783 25.5864 157.603 24.4669 158.479 23.3961C159.371 22.3254 160.19 21.3519 160.937 20.4758L161.715 20.8165ZM172.204 17.8962C172.123 18.0422 172.018 18.2044 171.888 18.3829C171.758 18.5452 171.628 18.7398 171.498 18.967C171.385 19.1779 171.279 19.4294 171.182 19.7214C171.101 20.0134 171.06 20.3622 171.06 20.7678C171.06 21.1086 171.142 21.5709 171.304 22.155C171.482 22.7391 171.669 23.4124 171.863 24.1749C172.058 24.9212 172.237 25.7405 172.399 26.6328C172.577 27.5089 172.667 28.4175 172.667 29.3585C172.667 30.7375 172.48 31.9543 172.107 33.0089C171.734 34.0634 171.239 34.9639 170.622 35.7102C171.888 35.0288 173.129 34.0553 174.346 32.7899C175.563 31.5082 176.787 29.8858 178.021 27.9226L178.848 28.6527C178.15 29.8046 177.355 30.9484 176.463 32.0841C175.587 33.2036 174.622 34.2176 173.567 35.1261C172.512 36.0184 171.377 36.7404 170.16 37.292C168.943 37.8599 167.653 38.1438 166.291 38.1438C165.074 38.1438 164.052 37.8518 163.224 37.2677C162.381 36.6999 161.861 35.84 161.667 34.6881L162.543 34.5177C162.543 34.6151 162.591 34.7773 162.689 35.0044C162.77 35.2154 162.908 35.4263 163.103 35.6372C163.297 35.8481 163.565 36.0347 163.906 36.1969C164.23 36.3592 164.636 36.4403 165.122 36.4403C165.771 36.4403 166.347 36.2943 166.85 36.0022C167.353 35.694 167.791 35.2965 168.164 34.8098C168.538 34.323 168.854 33.7714 169.114 33.1549C169.373 32.5222 169.576 31.8732 169.722 31.208C169.884 30.5428 169.998 29.8939 170.063 29.2611C170.128 28.6284 170.16 28.0524 170.16 27.5333C170.16 27.0141 170.136 26.4381 170.087 25.8054C170.055 25.1727 170.014 24.5724 169.965 24.0045C169.917 23.4205 169.868 22.9175 169.819 22.4957C169.787 22.0577 169.771 21.7737 169.771 21.6439V21.5953C169.56 21.8224 169.308 22.155 169.016 22.5931C168.724 23.0311 168.408 23.5097 168.067 24.0289C167.743 24.548 167.41 25.0753 167.069 25.6107C166.745 26.1461 166.445 26.6328 166.169 27.0709C165.909 27.5089 165.69 27.874 165.512 28.166C165.35 28.4418 165.268 28.5878 165.268 28.6041L164.392 27.9226C164.409 27.9064 164.611 27.5576 165.001 26.8762C165.39 26.1948 165.901 25.3349 166.534 24.2966C167.183 23.242 167.913 22.082 168.724 20.8165C169.535 19.5348 170.371 18.2937 171.231 17.0931L172.204 17.8962ZM185.832 17.8962C185.751 18.0422 185.646 18.2044 185.516 18.3829C185.386 18.5452 185.256 18.7398 185.127 18.967C185.013 19.1779 184.908 19.4294 184.81 19.7214C184.729 20.0134 184.689 20.3622 184.689 20.7678C184.689 21.1086 184.77 21.5709 184.932 22.155C185.11 22.7391 185.297 23.4124 185.492 24.1749C185.686 24.9212 185.865 25.7405 186.027 26.6328C186.206 27.5089 186.295 28.4175 186.295 29.3585C186.295 30.7375 186.108 31.9543 185.735 33.0089C185.362 34.0634 184.867 34.9639 184.251 35.7102C185.516 35.0288 186.757 34.0553 187.974 32.7899C189.191 31.5082 190.416 29.8858 191.649 27.9226L192.476 28.6527C191.779 29.8046 190.984 30.9484 190.091 32.0841C189.215 33.2036 188.25 34.2176 187.195 35.1261C186.141 36.0184 185.005 36.7404 183.788 37.292C182.571 37.8599 181.282 38.1438 179.919 38.1438C178.702 38.1438 177.68 37.8518 176.852 37.2677C176.009 36.6999 175.49 35.84 175.295 34.6881L176.171 34.5177C176.171 34.6151 176.22 34.7773 176.317 35.0044C176.398 35.2154 176.536 35.4263 176.731 35.6372C176.925 35.8481 177.193 36.0347 177.534 36.1969C177.858 36.3592 178.264 36.4403 178.751 36.4403C179.4 36.4403 179.976 36.2943 180.478 36.0022C180.981 35.694 181.419 35.2965 181.793 34.8098C182.166 34.323 182.482 33.7714 182.742 33.1549C183.001 32.5222 183.204 31.8732 183.35 31.208C183.512 30.5428 183.626 29.8939 183.691 29.2611C183.756 28.6284 183.788 28.0524 183.788 27.5333C183.788 27.0141 183.764 26.4381 183.715 25.8054C183.683 25.1727 183.642 24.5724 183.593 24.0045C183.545 23.4205 183.496 22.9175 183.447 22.4957C183.415 22.0577 183.399 21.7737 183.399 21.6439V21.5953C183.188 21.8224 182.936 22.155 182.644 22.5931C182.352 23.0311 182.036 23.5097 181.695 24.0289C181.371 24.548 181.038 25.0753 180.697 25.6107C180.373 26.1461 180.073 26.6328 179.797 27.0709C179.537 27.5089 179.318 27.874 179.14 28.166C178.978 28.4418 178.897 28.5878 178.897 28.6041L178.021 27.9226C178.037 27.9064 178.24 27.5576 178.629 26.8762C179.018 26.1948 179.529 25.3349 180.162 24.2966C180.811 23.242 181.541 22.082 182.352 20.8165C183.164 19.5348 183.999 18.2937 184.859 17.0931L185.832 17.8962ZM229.905 14.2945C229.954 14.3107 230.019 14.3188 230.1 14.3188H230.684C231.949 14.3188 233.223 14.1484 234.505 13.8077C235.786 13.467 236.946 12.9965 237.985 12.3962C239.023 11.7797 239.867 11.0496 240.516 10.206C241.164 9.34612 241.489 8.40513 241.489 7.38301C241.489 6.83139 241.367 6.34467 241.124 5.92285C240.881 5.4848 240.54 5.11976 240.102 4.82773C239.68 4.53569 239.161 4.31667 238.544 4.17065C237.944 4.00841 237.279 3.92729 236.549 3.92729C235.267 3.92729 234.018 4.08953 232.801 4.41401C231.584 4.73849 230.44 5.18465 229.37 5.7525C228.299 6.30411 227.317 6.96119 226.425 7.72372C225.533 8.47002 224.762 9.28934 224.113 10.1817C223.464 11.0578 222.961 11.9744 222.604 12.9316C222.247 13.8889 222.069 14.8461 222.069 15.8033C222.069 16.7605 222.247 17.6691 222.604 18.5289C223.724 18.5614 224.77 18.6425 225.744 18.7723C226.717 18.9021 227.561 19.1049 228.274 19.3807C228.988 19.6403 229.548 19.981 229.954 20.4028C230.359 20.8246 230.562 21.3357 230.562 21.936C230.562 22.5849 230.319 23.0798 229.832 23.4205C229.345 23.7612 228.737 23.9315 228.007 23.9315C227.423 23.9315 226.822 23.8342 226.206 23.6395C225.589 23.4448 224.989 23.1771 224.405 22.8364C223.837 22.4795 223.286 22.0577 222.75 21.5709C222.231 21.068 221.761 20.5164 221.339 19.9161C219.538 20.0621 217.867 20.4839 216.325 21.1816C214.8 21.863 213.478 22.7553 212.359 23.8585C211.255 24.9455 210.387 26.2029 209.755 27.6306C209.122 29.0421 208.806 30.5347 208.806 32.1085C208.806 33.3902 209.017 34.5502 209.438 35.5885C209.876 36.6106 210.517 37.4867 211.361 38.2168C212.221 38.9469 213.283 39.5066 214.549 39.896C215.831 40.2854 217.307 40.4801 218.978 40.4801C220.828 40.4801 222.58 40.1961 224.235 39.6283C225.906 39.0767 227.447 38.3709 228.859 37.5111C230.27 36.6512 231.552 35.7102 232.704 34.6881C233.856 33.6497 234.853 32.6682 235.697 31.7434C236.557 30.8186 237.246 30.0074 237.766 29.3098C238.285 28.5959 238.625 28.1336 238.788 27.9226L239.664 28.6041C239.291 29.1395 238.788 29.8452 238.155 30.7213C237.522 31.5812 236.752 32.4978 235.843 33.4713C234.951 34.4447 233.912 35.4263 232.728 36.4159C231.56 37.3894 230.246 38.2736 228.786 39.0686C227.342 39.8635 225.76 40.5044 224.04 40.9911C222.32 41.4941 220.463 41.7455 218.467 41.7455C216.277 41.7455 214.387 41.4697 212.797 40.9181C211.207 40.3665 209.885 39.6202 208.83 38.6792C207.792 37.7544 207.021 36.6836 206.518 35.4668C206.015 34.2338 205.764 32.9359 205.764 31.5731C205.764 30.6158 205.885 29.6424 206.129 28.6527C206.372 27.6631 206.745 26.6977 207.248 25.7567C207.751 24.8157 208.4 23.9234 209.195 23.0798C209.99 22.2361 210.931 21.4898 212.018 20.8409C213.105 20.1919 214.354 19.6646 215.766 19.259C217.177 18.8534 218.759 18.61 220.511 18.5289C220.219 17.9449 219.992 17.3365 219.83 16.7037C219.668 16.0548 219.587 15.3896 219.587 14.7082C219.587 13.4589 219.797 12.2827 220.219 11.1794C220.641 10.06 221.217 9.03786 221.947 8.11309C222.693 7.1721 223.561 6.33656 224.551 5.60648C225.557 4.8764 226.628 4.25988 227.763 3.75694C228.899 3.23777 230.075 2.84839 231.292 2.58881C232.525 2.313 233.742 2.17509 234.943 2.17509C236.176 2.17509 237.271 2.30489 238.228 2.56447C239.201 2.80783 240.021 3.15665 240.686 3.61092C241.351 4.0652 241.862 4.61681 242.219 5.26577C242.576 5.89851 242.754 6.59615 242.754 7.35868C242.754 8.20233 242.576 8.9973 242.219 9.74361C241.878 10.4899 241.408 11.1713 240.808 11.7878C240.223 12.3881 239.534 12.9316 238.739 13.4184C237.96 13.8889 237.125 14.2863 236.232 14.6108C235.356 14.9353 234.448 15.1868 233.507 15.3652C232.566 15.5275 231.657 15.6086 230.781 15.6086C230.489 15.6086 230.254 15.6005 230.075 15.5843C229.897 15.568 229.791 15.5599 229.759 15.5599L229.905 14.2945ZM229.272 21.8873C229.272 21.4979 229.094 21.1816 228.737 20.9382C228.396 20.6786 227.942 20.4758 227.374 20.3298C226.822 20.1838 226.19 20.0783 225.476 20.0134C224.778 19.9323 224.064 19.8836 223.334 19.8674C223.643 20.3217 223.983 20.7273 224.356 21.0842C224.746 21.4249 225.143 21.717 225.549 21.9603C225.954 22.2037 226.36 22.3903 226.766 22.52C227.187 22.6498 227.585 22.7147 227.958 22.7147C228.396 22.7147 228.721 22.6336 228.932 22.4714C229.159 22.3091 229.272 22.1144 229.272 21.8873ZM251.686 27.6793C251.426 27.1114 251.223 26.5193 251.077 25.9028C250.948 25.2862 250.883 24.6454 250.883 23.9802C250.883 23.1203 250.956 22.3984 251.102 21.8143C251.264 21.214 251.459 20.7354 251.686 20.3785C251.913 20.0053 252.156 19.7376 252.416 19.5754C252.692 19.4131 252.951 19.332 253.195 19.332C253.406 19.332 253.6 19.3807 253.779 19.478C253.973 19.5592 254.144 19.7052 254.29 19.9161C254.436 20.127 254.549 20.4028 254.63 20.7435C254.728 21.0842 254.776 21.506 254.776 22.009C254.776 23.1771 254.541 24.3777 254.071 25.6107C253.616 26.8437 253 28.0362 252.221 29.1881C251.459 30.34 250.574 31.427 249.569 32.4492C248.563 33.4713 247.524 34.3717 246.454 35.1505C246.161 35.3614 245.821 35.5885 245.431 35.8319C245.058 36.059 244.653 36.278 244.215 36.4889C243.793 36.6836 243.347 36.854 242.876 37C242.422 37.1298 241.976 37.1947 241.538 37.1947C240.451 37.1947 239.558 36.7891 238.861 35.9779C238.179 35.1505 237.839 33.9986 237.839 32.5222C237.839 31.8408 237.936 31.1107 238.131 30.3319C238.325 29.5532 238.593 28.7582 238.934 27.947C239.274 27.1196 239.672 26.2921 240.126 25.4647C240.58 24.6373 241.059 23.8504 241.562 23.1041C242.081 22.3416 242.617 21.6277 243.168 20.9625C243.72 20.2973 244.263 19.7133 244.799 19.2103L245.869 19.9161C244.928 21.3438 244.117 22.731 243.436 24.0776C242.754 25.4079 242.187 26.6653 241.732 27.8496C241.294 29.034 240.962 30.121 240.735 31.1107C240.524 32.0841 240.418 32.9278 240.418 33.6416C240.418 34.469 240.524 35.0612 240.735 35.4182C240.962 35.7589 241.278 35.9292 241.684 35.9292C242.073 35.9292 242.608 35.7913 243.29 35.5155C243.987 35.2235 244.791 34.7611 245.699 34.1283C246.851 33.3171 247.946 32.3599 248.984 31.2567C250.039 30.1372 250.939 28.9448 251.686 27.6793ZM252.465 26.4625C252.789 25.7324 253.04 24.978 253.219 24.1992C253.414 23.4043 253.511 22.6579 253.511 21.9603C253.511 21.4736 253.47 21.1248 253.389 20.9139C253.308 20.703 253.243 20.5813 253.195 20.5488C253.178 20.5488 253.113 20.5975 253 20.6948C252.886 20.7922 252.757 20.9706 252.611 21.2302C252.481 21.4736 252.359 21.8224 252.246 22.2767C252.148 22.7147 252.099 23.2826 252.099 23.9802C252.099 24.3858 252.124 24.8157 252.172 25.27C252.237 25.7243 252.335 26.1218 252.465 26.4625ZM258.086 31.4514C258.054 31.6461 258.029 31.8408 258.013 32.0354C257.997 32.2301 257.989 32.4248 257.989 32.6195C257.989 33.2036 258.07 33.7633 258.232 34.2987C258.411 34.8179 258.662 35.2803 258.987 35.6859C259.327 36.0752 259.741 36.3835 260.228 36.6106C260.731 36.8378 261.299 36.9513 261.931 36.9513C264.057 36.9513 266.109 36.2294 268.088 34.7854C270.068 33.3415 272.039 31.0539 274.002 27.9226L274.829 28.6527C273.759 30.4374 272.672 31.9462 271.568 33.1792C270.465 34.396 269.362 35.3857 268.259 36.1482C267.172 36.9108 266.101 37.4624 265.046 37.8031C263.992 38.1438 262.986 38.3141 262.029 38.3141C261.331 38.3141 260.593 38.2168 259.814 38.0221C259.035 37.8274 258.313 37.5029 257.648 37.0487C256.999 36.5944 256.464 35.986 256.042 35.2235C255.604 34.4609 255.385 33.5118 255.385 32.3761C255.385 31.1593 255.596 29.9912 256.018 28.8718C256.423 27.7361 256.959 26.6815 257.624 25.7081C258.289 24.7346 259.051 23.8504 259.911 23.0554C260.771 22.2442 261.639 21.5547 262.515 20.9869C263.408 20.419 264.276 19.981 265.119 19.6727C265.963 19.3482 266.709 19.186 267.358 19.186C267.78 19.186 268.21 19.2509 268.648 19.3807C269.086 19.5105 269.475 19.7133 269.816 19.9891C270.173 20.2649 270.457 20.6299 270.668 21.0842C270.895 21.5385 271.009 22.082 271.009 22.7147C271.009 23.5746 270.806 24.3858 270.4 25.1483C270.011 25.8946 269.484 26.5923 268.818 27.2412C268.153 27.874 267.383 28.4499 266.506 28.9691C265.63 29.472 264.714 29.902 263.756 30.2589C262.799 30.6158 261.834 30.8998 260.86 31.1107C259.887 31.3216 258.962 31.4352 258.086 31.4514ZM258.281 30.4049C259.368 30.2914 260.39 30.0642 261.347 29.7235C262.304 29.3828 263.181 28.9691 263.975 28.4824C264.77 27.9794 265.476 27.4359 266.093 26.8519C266.725 26.2678 267.253 25.6756 267.675 25.0753C268.096 24.475 268.421 23.8991 268.648 23.3475C268.875 22.7959 268.989 22.301 268.989 21.863C268.989 21.4249 268.867 21.0761 268.624 20.8165C268.397 20.5569 268.121 20.4271 267.796 20.4271C267.082 20.4271 266.279 20.6867 265.387 21.2059C264.495 21.7088 263.602 22.4146 262.71 23.3231C261.818 24.2155 260.974 25.27 260.179 26.4868C259.4 27.7036 258.768 29.0097 258.281 30.4049ZM294.323 24.3696C294.323 25.0672 294.201 25.7811 293.958 26.5112C293.714 27.225 293.406 27.947 293.033 28.6771C292.66 29.3909 292.262 30.0967 291.84 30.7943C291.418 31.4919 291.021 32.1652 290.648 32.8142C290.275 33.4632 289.966 34.0878 289.723 34.6881C289.48 35.2721 289.358 35.8075 289.358 36.2943C289.358 36.6674 289.439 36.9189 289.601 37.0487C289.764 37.1785 289.942 37.2434 290.137 37.2434C290.753 37.2434 291.443 36.9432 292.205 36.3429C292.968 35.7264 293.738 34.9558 294.517 34.031C295.312 33.1062 296.099 32.1003 296.878 31.0133C297.657 29.9263 298.362 28.8961 298.995 27.9226L299.871 28.6041C299.741 28.7987 299.506 29.1881 299.165 29.7722C298.825 30.34 298.403 30.9971 297.9 31.7434C297.397 32.4735 296.829 33.2441 296.196 34.0553C295.58 34.8503 294.915 35.5885 294.201 36.2699C293.487 36.9351 292.749 37.4867 291.986 37.9248C291.24 38.3628 290.486 38.5818 289.723 38.5818C289.285 38.5818 288.888 38.5088 288.531 38.3628C288.174 38.2168 287.865 38.014 287.606 37.7544C287.362 37.4948 287.168 37.1947 287.022 36.854C286.876 36.4971 286.803 36.1239 286.803 35.7345C286.803 35.1018 286.941 34.4204 287.216 33.6903C287.508 32.944 287.865 32.1815 288.287 31.4027C288.709 30.624 289.171 29.8452 289.674 29.0664C290.177 28.2715 290.64 27.517 291.062 26.8032C291.483 26.0893 291.832 25.4323 292.108 24.832C292.4 24.2155 292.546 23.6882 292.546 23.2501C292.546 22.7472 292.408 22.3254 292.132 21.9846C291.873 21.6439 291.5 21.4736 291.013 21.4736C290.494 21.4736 289.893 21.6926 289.212 22.1307C288.531 22.5525 287.768 23.1771 286.924 24.0045C286.081 24.832 285.156 25.8541 284.15 27.0709C283.16 28.2715 282.082 29.6424 280.913 31.1837C280.248 32.076 279.599 32.9359 278.967 33.7633C278.691 34.1202 278.415 34.4853 278.139 34.8584C277.863 35.2316 277.587 35.6047 277.312 35.9779C277.036 36.3348 276.776 36.6755 276.533 37C276.29 37.3407 276.071 37.6327 275.876 37.8761L273.734 37L276.582 33.0819C276.987 32.5303 277.401 31.9381 277.823 31.3054C278.245 30.6726 278.658 30.0237 279.064 29.3585C279.486 28.6771 279.883 27.9957 280.256 27.3142C280.629 26.6328 280.978 25.9677 281.303 25.3187C281.773 24.3452 282.098 23.5422 282.276 22.9094C282.455 22.2605 282.544 21.7413 282.544 21.3519C282.544 20.9139 282.463 20.6299 282.301 20.5001C282.138 20.3541 281.911 20.2811 281.619 20.2811C281.311 20.2811 280.954 20.4434 280.548 20.7678C280.159 21.0761 279.753 21.4817 279.332 21.9846C278.91 22.4714 278.48 23.0311 278.042 23.6638C277.62 24.2804 277.214 24.8969 276.825 25.5134C276.436 26.1299 276.071 26.714 275.73 27.2656C275.389 27.8172 275.105 28.2634 274.878 28.6041L274.002 27.9226C274.829 26.6247 275.576 25.4404 276.241 24.3696C276.922 23.2826 277.571 22.3497 278.188 21.5709C278.82 20.7922 279.429 20.1919 280.013 19.7701C280.613 19.332 281.246 19.113 281.911 19.113C282.268 19.113 282.609 19.186 282.933 19.332C283.274 19.478 283.566 19.6971 283.809 19.9891C284.069 20.2649 284.272 20.6056 284.418 21.0112C284.564 21.4168 284.637 21.8873 284.637 22.4227C284.637 22.8445 284.588 23.2826 284.491 23.7368C285.205 23.0392 285.87 22.4633 286.486 22.009C287.103 21.5547 287.671 21.1978 288.19 20.9382C288.709 20.6624 289.188 20.4677 289.626 20.3541C290.064 20.2406 290.461 20.1838 290.818 20.1838C291.126 20.1838 291.483 20.2406 291.889 20.3541C292.295 20.4677 292.676 20.6786 293.033 20.9869C293.39 21.2951 293.69 21.7251 293.933 22.2767C294.193 22.8121 294.323 23.5097 294.323 24.3696ZM303.96 16.9227C304.122 16.6469 304.406 16.1683 304.811 15.4869C305.233 14.8055 305.72 14.0511 306.272 13.2237C306.839 12.3962 307.448 11.5688 308.097 10.7414C308.762 9.89774 309.411 9.18388 310.044 8.59982L311.139 9.25689C310.441 10.4088 309.727 11.6337 308.997 12.9316C308.267 14.2133 307.545 15.5437 306.831 16.9227H314.765L314.278 18.1882H306.174C305.444 19.6484 304.755 21.1004 304.106 22.5444C303.473 23.9883 302.913 25.3674 302.426 26.6815C301.94 27.9957 301.558 29.2287 301.283 30.3806C301.007 31.5163 300.869 32.5059 300.869 33.3496C300.869 34.4042 301.112 35.1667 301.599 35.6372C302.086 36.0915 302.686 36.3186 303.4 36.3186C304.033 36.3186 304.682 36.132 305.347 35.7589C306.012 35.3695 306.661 34.8828 307.294 34.2987C307.943 33.7146 308.551 33.0738 309.119 32.3761C309.703 31.6785 310.214 31.0214 310.652 30.4049C311.106 29.7884 311.479 29.253 311.772 28.7987C312.064 28.3282 312.242 28.0362 312.307 27.9226L313.207 28.6041C312.639 29.5451 311.999 30.5428 311.285 31.5974C310.571 32.652 309.776 33.6335 308.9 34.5421C308.04 35.4344 307.099 36.1807 306.077 36.781C305.055 37.365 303.952 37.6571 302.767 37.6571C302.037 37.6571 301.396 37.5273 300.845 37.2677C300.309 37.0081 299.855 36.6512 299.482 36.1969C299.109 35.7264 298.833 35.1748 298.654 34.5421C298.46 33.9093 298.362 33.2198 298.362 32.4735C298.362 31.9868 298.443 31.2972 298.606 30.4049C298.752 29.5126 299.011 28.458 299.384 27.2412C299.758 26.0082 300.252 24.6292 300.869 23.1041C301.502 21.579 302.297 19.9404 303.254 18.1882H299.214L299.701 16.9227H303.96ZM320.119 17.8962C320.038 18.0422 319.932 18.2044 319.802 18.3829C319.673 18.5452 319.543 18.7398 319.413 18.967C319.299 19.1779 319.194 19.4294 319.097 19.7214C319.016 20.0134 318.975 20.3622 318.975 20.7678C318.975 21.1086 319.056 21.5709 319.218 22.155C319.397 22.7391 319.583 23.4124 319.778 24.1749C319.973 24.9212 320.151 25.7405 320.313 26.6328C320.492 27.5089 320.581 28.4175 320.581 29.3585C320.581 30.7375 320.395 31.9543 320.021 33.0089C319.648 34.0634 319.153 34.9639 318.537 35.7102C319.802 35.0288 321.044 34.0553 322.26 32.7899C323.477 31.5082 324.702 29.8858 325.935 27.9226L326.763 28.6527C326.065 29.8046 325.27 30.9484 324.378 32.0841C323.502 33.2036 322.536 34.2176 321.482 35.1261C320.427 36.0184 319.291 36.7404 318.075 37.292C316.858 37.8599 315.568 38.1438 314.205 38.1438C312.988 38.1438 311.966 37.8518 311.139 37.2677C310.295 36.6999 309.776 35.84 309.581 34.6881L310.457 34.5177C310.457 34.6151 310.506 34.7773 310.603 35.0044C310.685 35.2154 310.822 35.4263 311.017 35.6372C311.212 35.8481 311.479 36.0347 311.82 36.1969C312.145 36.3592 312.55 36.4403 313.037 36.4403C313.686 36.4403 314.262 36.2943 314.765 36.0022C315.268 35.694 315.706 35.2965 316.079 34.8098C316.452 34.323 316.769 33.7714 317.028 33.1549C317.288 32.5222 317.49 31.8732 317.637 31.208C317.799 30.5428 317.912 29.8939 317.977 29.2611C318.042 28.6284 318.075 28.0524 318.075 27.5333C318.075 27.0141 318.05 26.4381 318.002 25.8054C317.969 25.1727 317.929 24.5724 317.88 24.0045C317.831 23.4205 317.783 22.9175 317.734 22.4957C317.701 22.0577 317.685 21.7737 317.685 21.6439V21.5953C317.474 21.8224 317.223 22.155 316.931 22.5931C316.639 23.0311 316.322 23.5097 315.982 24.0289C315.657 24.548 315.325 25.0753 314.984 25.6107C314.659 26.1461 314.359 26.6328 314.083 27.0709C313.824 27.5089 313.605 27.874 313.426 28.166C313.264 28.4418 313.183 28.5878 313.183 28.6041L312.307 27.9226C312.323 27.9064 312.526 27.5576 312.915 26.8762C313.305 26.1948 313.816 25.3349 314.448 24.2966C315.097 23.242 315.828 22.082 316.639 20.8165C317.45 19.5348 318.285 18.2937 319.145 17.0931L320.119 17.8962Z" fill="white"/>
</svg>
