<svg width="117" height="118" viewBox="0 0 117 118" fill="none" xmlns="http://www.w3.org/2000/svg">
<path d="M115.59 50.9C115.59 50.3829 115.331 49.9304 114.814 49.5425C114.297 49.1547 113.78 49.0254 113.263 49.1547C112.745 49.2839 112.358 49.6072 112.099 50.1243C111.84 50.6414 111.711 51.1586 111.711 51.6757C112.487 54.0028 112.164 56.2653 110.742 58.4631C109.319 60.6609 107.315 62.1477 104.73 62.9234C106.023 59.562 107.057 56.0714 107.833 52.4514C109.384 47.0215 110.289 41.8501 110.548 36.9373C111.323 28.9217 110.677 23.2332 108.608 19.8718C107.574 18.579 106.41 17.674 105.118 17.1569C103.049 16.3812 100.722 16.6397 98.1363 17.9326C96.3264 18.9669 94.581 19.6133 92.9003 19.8718C91.2196 20.1304 89.345 20.0011 87.2765 19.484L74.4774 15.9933C71.116 14.9591 67.8839 14.5712 64.7811 14.8298C63.4882 13.2784 62.1954 11.8562 60.9026 10.5634C57.7997 7.46059 54.5676 5.00419 51.2063 3.19421C46.8106 0.867104 43.5139 0.285332 41.316 1.44888C39.1182 2.61244 37.2436 4.09921 35.6922 5.90918C35.4336 6.16775 35.3043 6.62024 35.3043 7.26666C35.3043 7.91308 35.5629 8.36558 36.08 8.62415C36.5972 8.88271 37.1143 9.01199 37.6314 9.01199C38.1486 9.01199 38.5364 8.75343 38.795 8.23629C40.0878 6.94345 41.3807 5.90918 42.6735 5.13348C43.9664 4.35777 46.0349 4.74562 48.8792 6.29704C51.7234 7.84844 54.503 9.85234 57.218 12.3087C59.9329 14.7651 62.0015 17.2862 63.4236 19.8718C64.8457 22.4575 65.0396 24.5261 64.0054 26.0775C62.7125 28.4046 60.8379 30.3438 58.3815 31.8953C55.9251 33.4467 52.887 34.3516 49.267 34.6102C49.5256 32.2831 49.267 29.956 48.4913 27.6289C50.0427 26.0775 51.8527 25.0432 53.9212 24.5261C54.4384 24.2675 54.8262 23.9443 55.0848 23.5564C55.3433 23.1686 55.408 22.7161 55.2787 22.199C55.1494 21.6818 54.8909 21.294 54.503 21.0354C54.1152 20.7768 53.6627 20.6476 53.1455 20.6476C50.8184 21.1647 48.7499 22.199 46.9399 23.7504C46.4228 22.9747 45.7763 22.199 45.0006 21.4233C46.2935 19.6133 47.1985 17.674 47.7156 15.6055C47.9742 15.0883 47.9742 14.5712 47.7156 14.0541C47.457 13.5369 47.0692 13.2137 46.552 13.0844C46.0349 12.9552 45.5178 13.0198 45.0006 13.2784C44.4835 13.5369 44.2249 13.9248 44.2249 14.4419C43.7078 15.9933 43.0614 17.2862 42.2857 18.3204C39.9586 16.5105 37.5668 15.7348 35.1104 15.9933C32.654 16.2519 30.4562 17.3508 28.5169 19.2901C26.5777 21.2293 25.3495 23.4918 24.8323 26.0775C21.2124 26.8532 18.3681 28.7924 16.2996 31.8953C12.6796 32.671 9.44755 33.8992 6.6033 35.5798C3.75905 37.2605 1.69051 39.3937 0.397671 41.9794C-0.895169 44.5651 -0.378033 48.0557 1.94908 52.4514C3.75905 55.8128 6.21545 59.0449 9.31826 62.1477C10.6111 63.4405 12.0332 64.7334 13.5846 66.0262C13.3261 69.129 13.7139 72.3611 14.7482 75.7225L18.2389 88.5216C18.756 90.5902 18.8853 92.4648 18.6267 94.1455C18.3681 95.8262 17.7217 97.7008 16.6874 99.7693C15.6532 101.838 15.33 103.777 15.7178 105.587C16.1057 107.397 17.3339 108.948 19.4024 110.241C21.7295 111.534 25.2848 112.181 30.0683 112.181C34.8518 112.181 40.2171 111.534 46.1642 110.241C51.3355 109.207 56.5069 107.785 61.6783 105.975C61.1611 108.302 59.9976 110.112 58.1876 111.405C56.3776 112.698 54.3091 113.344 51.982 113.344C51.4648 113.344 51.0123 113.538 50.6245 113.926C50.2366 114.314 50.0427 114.766 50.0427 115.283C50.0427 115.801 50.2366 116.253 50.6245 116.641C51.0123 117.029 51.4648 117.223 51.982 117.223C55.6019 117.223 58.7694 115.994 61.4843 113.538C64.1993 111.082 65.6861 108.043 65.9446 104.424C74.7359 100.804 80.5537 97.0544 83.398 93.1758C84.6908 91.3659 85.2079 89.4913 84.9494 87.552C84.6908 85.6127 83.7212 83.9967 82.0405 82.7038C80.3598 81.411 79.067 80.0535 78.162 78.6314C77.257 77.2093 76.4166 75.3347 75.6409 73.0075L72.5381 60.2084C70.211 51.6757 65.5568 45.4701 58.5754 41.5915C58.0583 41.333 57.5412 41.333 57.024 41.5915C56.5069 41.8501 56.1191 42.1733 55.8605 42.5612C55.6019 42.949 55.5373 43.4015 55.6666 43.9187C55.7958 44.4358 56.1191 44.8236 56.6362 45.0822C62.5833 48.4436 66.591 53.8735 68.6596 61.372L72.1503 74.1711C72.6674 76.7568 73.5077 78.9546 74.6713 80.7646C75.8349 82.5746 77.3216 84.126 79.1316 85.4188C80.1659 86.4531 80.8123 87.3581 81.0709 88.1338C81.3294 88.9095 81.0709 89.8145 80.2952 90.8487C78.4852 93.4344 74.9945 96.0201 69.8232 98.6058C64.6518 101.191 58.6401 103.389 51.788 105.199C44.936 107.009 38.7304 108.043 33.1712 108.302C27.6119 108.561 23.6688 108.043 21.3417 106.751C20.3074 106.234 19.661 105.587 19.4024 104.811C19.1438 104.036 19.4024 102.743 20.1781 100.933C21.2124 98.8643 21.8588 96.9251 22.1174 95.1151C22.6345 92.788 22.5052 90.3316 21.7295 87.7459L18.2389 74.559C17.7217 72.4904 17.4632 70.4219 17.4632 68.3533C21.0831 69.9047 24.1859 70.034 26.7716 68.7412C30.6501 66.6726 33.6236 63.182 35.6922 58.2692C35.6922 57.752 35.6275 57.2995 35.4983 56.9117C35.369 56.5238 35.0458 56.2006 34.5286 55.9421C34.0115 55.6835 33.4944 55.6835 32.9772 55.9421C32.4601 56.2006 32.0722 56.5885 31.8137 57.1056C30.2623 60.9841 27.9352 63.6991 24.8323 65.2505C23.5395 66.0262 21.7295 65.8969 19.4024 64.8627C17.0753 63.8284 14.6189 62.0184 12.0332 59.4327C8.93041 56.5885 6.6033 53.615 5.05189 50.5121C3.50049 47.4093 2.98335 45.3408 3.50049 44.3065C5.8276 40.428 9.57683 37.713 14.7482 36.1616C14.4896 38.7473 15.2653 41.2037 17.0753 43.5308C16.041 44.3065 14.7482 44.9529 13.1968 45.4701C12.6796 45.4701 12.2918 45.7286 12.0332 46.2458C11.7747 46.7629 11.7747 47.4093 12.0332 48.185C12.2918 48.9607 12.7443 49.3486 13.3907 49.3486C14.0371 49.3486 15.0068 49.09 16.2996 48.5729C17.5924 48.0557 18.8853 47.28 20.1781 46.2458C20.9538 47.0215 21.7295 47.6679 22.5052 48.185C20.9538 49.995 19.9195 52.0635 19.4024 54.3907C19.4024 54.9078 19.5317 55.3603 19.7903 55.7481C20.0488 56.136 20.4367 56.3946 20.9538 56.5238C21.471 56.6531 21.9234 56.5885 22.3113 56.3299C22.6992 56.0714 23.0224 55.6835 23.2809 55.1664C23.7981 53.0978 24.8323 51.2878 26.3837 49.7364C32.3308 51.5464 38.0193 50.9 43.4492 47.7972C44.7421 47.0215 45.7763 45.9872 46.552 44.6944C47.5863 42.6258 48.362 40.6866 48.8792 38.8766C53.2748 38.3595 57.0887 37.1313 60.3208 35.192C63.5529 33.2527 65.88 30.9256 67.3021 28.2107C68.7242 25.4957 68.6596 22.3282 67.1082 18.7083C69.1767 18.7083 71.2453 18.9669 73.3138 19.484L86.5008 22.9747C89.0865 23.7504 91.5429 23.8796 93.87 23.3625C95.6799 23.1039 97.7485 22.4575 100.076 21.4233C102.403 20.389 104.213 20.6476 105.506 22.199C106.798 24.2675 107.315 28.0167 107.057 33.4467C106.798 38.8766 105.829 44.8883 104.148 51.4818C102.467 58.0753 100.399 64.087 97.9424 69.5169C95.486 74.9468 93.0943 78.696 90.7672 80.7646C90.25 81.0232 89.9914 81.4756 89.9914 82.1221C89.9914 82.7685 90.1207 83.2856 90.3793 83.6735C90.6379 84.0613 91.0904 84.2552 91.7368 84.2552C92.3832 84.2552 92.8357 84.126 93.0943 83.8674C96.7142 80.7646 100.076 75.2054 103.178 67.1898C107.315 66.9312 110.677 65.1212 113.263 61.7598C115.848 58.3985 116.624 54.7785 115.59 50.9ZM43.0614 42.3672C42.5442 43.143 41.8978 43.7894 41.1221 44.3065C38.0193 46.3751 34.7872 47.1508 31.4258 46.6336C28.323 46.3751 25.4788 45.4054 22.8931 43.7247C20.3074 42.044 18.9499 40.1048 18.8206 37.907C18.6913 35.7091 19.4671 33.8345 21.1477 32.2831C22.8284 30.7317 24.7031 29.956 26.7716 29.956C27.2887 29.956 27.7412 29.7621 28.1291 29.3742C28.5169 28.9864 28.7109 28.5339 28.7109 28.0167C28.7109 26.2068 29.2926 24.5261 30.4562 22.9747C31.6197 21.4233 32.9772 20.5183 34.5286 20.2597C37.6314 19.484 40.3464 20.9061 42.6735 24.5261C44.2249 26.8532 45.1299 29.5681 45.3885 32.671C45.6471 36.0323 44.8713 39.2644 43.0614 42.3672Z" fill="white"/>
</svg>
