<svg width="43" height="43" viewBox="0 0 43 43" fill="none" xmlns="http://www.w3.org/2000/svg">
<g id="Icon" clip-path="url(#clip0_326_1791)">
<path id="Vector" d="M42.5702 18.7602C42.5702 18.5735 42.4769 18.4102 42.2902 18.2702C42.1036 18.1302 41.9169 18.0835 41.7302 18.1302C41.5436 18.1769 41.4036 18.2935 41.3102 18.4802C41.2169 18.6669 41.1702 18.8535 41.1702 19.0402C41.4502 19.8802 41.3336 20.6969 40.8202 21.4902C40.3069 22.2835 39.5836 22.8202 38.6502 23.1002C39.1169 21.8869 39.4902 20.6269 39.7702 19.3202C40.3302 17.3602 40.6569 15.4935 40.7502 13.7202C41.0302 10.8269 40.7969 8.77353 40.0502 7.5602C39.6769 7.09353 39.2569 6.76686 38.7902 6.5802C38.0436 6.30019 37.2036 6.39353 36.2702 6.8602C35.6169 7.23353 34.9869 7.46686 34.3802 7.5602C33.7736 7.65353 33.0969 7.60686 32.3502 7.4202L27.7302 6.16019C26.5169 5.78686 25.3502 5.64686 24.2302 5.7402C23.7636 5.18019 23.2969 4.66686 22.8302 4.2002C21.7102 3.0802 20.5436 2.19353 19.3302 1.5402C17.7436 0.700195 16.5536 0.490196 15.7602 0.910194C14.9669 1.3302 14.2902 1.86686 13.7302 2.5202C13.6369 2.61353 13.5902 2.77686 13.5902 3.0102C13.5902 3.24353 13.6836 3.40686 13.8702 3.50019C14.0569 3.59353 14.2436 3.64019 14.4302 3.64019C14.6169 3.64019 14.7569 3.54686 14.8502 3.3602C15.3169 2.89353 15.7836 2.5202 16.2502 2.2402C16.7169 1.96019 17.4636 2.1002 18.4902 2.66019C19.5169 3.2202 20.5202 3.94353 21.5002 4.8302C22.4802 5.71686 23.2269 6.62686 23.7402 7.5602C24.2536 8.49353 24.3236 9.2402 23.9502 9.80019C23.4836 10.6402 22.8069 11.3402 21.9202 11.9002C21.0336 12.4602 19.9369 12.7869 18.6302 12.8802C18.7236 12.0402 18.6302 11.2002 18.3502 10.3602C18.9102 9.80019 19.5636 9.42686 20.3102 9.2402C20.4969 9.14686 20.6369 9.03019 20.7302 8.89019C20.8236 8.75019 20.8469 8.58686 20.8002 8.4002C20.7536 8.21353 20.6602 8.07353 20.5202 7.98019C20.3802 7.88686 20.2169 7.84019 20.0302 7.84019C19.1902 8.02686 18.4436 8.4002 17.7902 8.96019C17.6036 8.68019 17.3702 8.4002 17.0902 8.12019C17.5569 7.46686 17.8836 6.76686 18.0702 6.0202C18.1636 5.83353 18.1636 5.64686 18.0702 5.46019C17.9769 5.27353 17.8369 5.15686 17.6502 5.1102C17.4636 5.06353 17.2769 5.08686 17.0902 5.18019C16.9036 5.27353 16.8102 5.41353 16.8102 5.6002C16.6236 6.16019 16.3902 6.62686 16.1102 7.00019C15.2702 6.34686 14.4069 6.06686 13.5202 6.16019C12.6336 6.25353 11.8402 6.6502 11.1402 7.3502C10.4402 8.05019 9.9969 8.86686 9.81023 9.80019C8.50357 10.0802 7.4769 10.7802 6.73023 11.9002C5.42357 12.1802 4.2569 12.6235 3.23023 13.2302C2.20357 13.8369 1.4569 14.6069 0.990234 15.5402C0.523568 16.4735 0.710234 17.7335 1.55023 19.3202C2.20357 20.5335 3.09023 21.7002 4.21023 22.8202C4.6769 23.2869 5.19023 23.7535 5.75023 24.2202C5.6569 25.3402 5.7969 26.5069 6.17023 27.7202L7.43023 32.3402C7.6169 33.0869 7.66357 33.7635 7.57023 34.3702C7.4769 34.9769 7.24357 35.6535 6.87023 36.4002C6.4969 37.1469 6.38023 37.8469 6.52023 38.5002C6.66023 39.1535 7.10357 39.7135 7.85023 40.1802C8.69023 40.6469 9.97357 40.8802 11.7002 40.8802C13.4269 40.8802 15.3636 40.6469 17.5102 40.1802C19.3769 39.8069 21.2436 39.2935 23.1102 38.6402C22.9236 39.4802 22.5036 40.1335 21.8502 40.6002C21.1969 41.0669 20.4502 41.3002 19.6102 41.3002C19.4236 41.3002 19.2602 41.3702 19.1202 41.5102C18.9802 41.6502 18.9102 41.8135 18.9102 42.0002C18.9102 42.1869 18.9802 42.3502 19.1202 42.4902C19.2602 42.6302 19.4236 42.7002 19.6102 42.7002C20.9169 42.7002 22.0602 42.2569 23.0402 41.3702C24.0202 40.4835 24.5569 39.3869 24.6502 38.0802C27.8236 36.7735 29.9236 35.4202 30.9502 34.0202C31.4169 33.3669 31.6036 32.6902 31.5102 31.9902C31.4169 31.2902 31.0669 30.7069 30.4602 30.2402C29.8536 29.7735 29.3869 29.2835 29.0602 28.7702C28.7336 28.2569 28.4302 27.5802 28.1502 26.7402L27.0302 22.1202C26.1902 19.0402 24.5102 16.8002 21.9902 15.4002C21.8036 15.3069 21.6169 15.3069 21.4302 15.4002C21.2436 15.4935 21.1036 15.6102 21.0102 15.7502C20.9169 15.8902 20.8936 16.0535 20.9402 16.2402C20.9869 16.4269 21.1036 16.5669 21.2902 16.6602C23.4369 17.8735 24.8836 19.8335 25.6302 22.5402L26.8902 27.1602C27.0769 28.0935 27.3802 28.8869 27.8002 29.5402C28.2202 30.1935 28.7569 30.7535 29.4102 31.2202C29.7836 31.5935 30.0169 31.9202 30.1102 32.2002C30.2036 32.4802 30.1102 32.8069 29.8302 33.1802C29.1769 34.1135 27.9169 35.0469 26.0502 35.9802C24.1836 36.9135 22.0136 37.7069 19.5402 38.3602C17.0669 39.0135 14.8269 39.3869 12.8202 39.4802C10.8136 39.5735 9.39023 39.3869 8.55023 38.9202C8.1769 38.7335 7.94357 38.5002 7.85023 38.2202C7.7569 37.9402 7.85023 37.4735 8.13023 36.8202C8.50357 36.0735 8.7369 35.3735 8.83023 34.7202C9.0169 33.8802 8.97023 32.9935 8.69023 32.0602L7.43023 27.3002C7.24357 26.5535 7.15023 25.8069 7.15023 25.0602C8.4569 25.6202 9.5769 25.6669 10.5102 25.2002C11.9102 24.4535 12.9836 23.1935 13.7302 21.4202C13.7302 21.2335 13.7069 21.0702 13.6602 20.9302C13.6136 20.7902 13.4969 20.6735 13.3102 20.5802C13.1236 20.4869 12.9369 20.4869 12.7502 20.5802C12.5636 20.6735 12.4236 20.8135 12.3302 21.0002C11.7702 22.4002 10.9302 23.3802 9.81023 23.9402C9.34357 24.2202 8.69023 24.1735 7.85023 23.8002C7.01023 23.4269 6.12357 22.7735 5.19023 21.8402C4.07023 20.8135 3.23023 19.7402 2.67023 18.6202C2.11023 17.5002 1.92357 16.7535 2.11023 16.3802C2.95023 14.9802 4.30357 14.0002 6.17023 13.4402C6.0769 14.3735 6.3569 15.2602 7.01023 16.1002C6.6369 16.3802 6.17023 16.6135 5.61023 16.8002C5.42357 16.8002 5.28357 16.8935 5.19023 17.0802C5.0969 17.2669 5.0969 17.5002 5.19023 17.7802C5.28357 18.0602 5.4469 18.2002 5.68023 18.2002C5.91357 18.2002 6.26357 18.1069 6.73023 17.9202C7.1969 17.7335 7.66357 17.4535 8.13023 17.0802C8.41023 17.3602 8.69023 17.5935 8.97023 17.7802C8.41023 18.4335 8.0369 19.1802 7.85023 20.0202C7.85023 20.2069 7.8969 20.3702 7.99023 20.5102C8.08357 20.6502 8.22357 20.7435 8.41023 20.7902C8.5969 20.8369 8.76023 20.8135 8.90023 20.7202C9.04023 20.6269 9.1569 20.4869 9.25023 20.3002C9.4369 19.5535 9.81023 18.9002 10.3702 18.3402C12.5169 18.9935 14.5702 18.7602 16.5302 17.6402C16.9969 17.3602 17.3702 16.9869 17.6502 16.5202C18.0236 15.7735 18.3036 15.0735 18.4902 14.4202C20.0769 14.2335 21.4536 13.7902 22.6202 13.0902C23.7869 12.3902 24.6269 11.5502 25.1402 10.5702C25.6536 9.59019 25.6302 8.44686 25.0702 7.14019C25.8169 7.14019 26.5636 7.23353 27.3102 7.4202L32.0702 8.68019C33.0036 8.96019 33.8902 9.00686 34.7302 8.82019C35.3836 8.72686 36.1302 8.49353 36.9702 8.12019C37.8102 7.74686 38.4636 7.84019 38.9302 8.4002C39.3969 9.14686 39.5836 10.5002 39.4902 12.4602C39.3969 14.4202 39.0469 16.5902 38.4402 18.9702C37.8336 21.3502 37.0869 23.5202 36.2002 25.4802C35.3136 27.4402 34.4502 28.7935 33.6102 29.5402C33.4236 29.6335 33.3302 29.7969 33.3302 30.0302C33.3302 30.2635 33.3769 30.4502 33.4702 30.5902C33.5636 30.7302 33.7269 30.8002 33.9602 30.8002C34.1936 30.8002 34.3569 30.7535 34.4502 30.6602C35.7569 29.5402 36.9702 27.5335 38.0902 24.6402C39.5836 24.5469 40.7969 23.8935 41.7302 22.6802C42.6636 21.4669 42.9436 20.1602 42.5702 18.7602ZM16.3902 15.6802C16.2036 15.9602 15.9702 16.1935 15.6902 16.3802C14.5702 17.1269 13.4036 17.4069 12.1902 17.2202C11.0702 17.1269 10.0436 16.7769 9.11023 16.1702C8.1769 15.5635 7.6869 14.8635 7.64023 14.0702C7.59357 13.2769 7.87357 12.6002 8.48023 12.0402C9.0869 11.4802 9.76357 11.2002 10.5102 11.2002C10.6969 11.2002 10.8602 11.1302 11.0002 10.9902C11.1402 10.8502 11.2102 10.6869 11.2102 10.5002C11.2102 9.84686 11.4202 9.2402 11.8402 8.68019C12.2602 8.12019 12.7502 7.79353 13.3102 7.7002C14.4302 7.4202 15.4102 7.93353 16.2502 9.2402C16.8102 10.0802 17.1369 11.0602 17.2302 12.1802C17.3236 13.3935 17.0436 14.5602 16.3902 15.6802Z" fill="#B40101"/>
</g>
<defs>
<clipPath id="clip0_326_1791">
<rect width="42.02" height="42" fill="white" transform="matrix(1 0 0 -1 0.980469 42.7002)"/>
</clipPath>
</defs>
</svg>
