<svg width="89" height="116" viewBox="0 0 89 116" fill="none" xmlns="http://www.w3.org/2000/svg">
<path d="M86.8537 16.24C84.7147 10.3111 81.2091 5.99333 76.337 3.28667C71.4649 0.579999 66.1174 -0.386669 60.2947 0.386665C54.4719 1.16 49.1838 3.48 44.4305 7.34667C39.6773 3.48 34.3892 1.16 28.5664 0.386665C22.7437 -0.386669 17.3962 0.579999 12.5241 3.28667C7.65195 5.99333 4.1464 10.3111 2.00742 16.24C0.106103 21.3956 -0.428642 27.3889 0.403184 34.22C1.23501 41.0511 3.43341 47.6889 6.99838 54.1333C10.801 61.3511 15.5543 67.28 21.2583 71.92C19.8323 73.7244 19.0004 76.1089 18.7628 79.0733C18.5251 82.0378 18.8816 84.68 19.8323 87C20.7829 89.32 22.0901 91.1244 23.7537 92.4133C25.4174 93.7022 27.3187 94.2178 29.4577 93.96C33.498 93.4444 36.7064 92.0267 39.0831 89.7067C39.5584 90.2222 40.1526 90.7378 40.8656 91.2533C40.8656 92.8 41.3409 94.9267 42.2916 97.6333C43.2422 100.34 43.8364 102.596 44.0741 104.4C44.3117 107.236 43.8364 110.2 42.6481 113.293C42.4104 114.067 42.4698 114.711 42.8263 115.227C43.1828 115.742 43.777 116 44.6088 116C45.4406 116 45.9754 115.613 46.213 114.84C47.4014 110.973 47.7579 107.364 47.2825 104.013C47.2825 101.951 46.6884 99.3733 45.5 96.28L44.4305 92.0267C45.8565 91.7689 47.0449 91.06 47.9955 89.9C48.9462 88.74 49.4215 87.3867 49.4215 85.84V83.9067C49.4215 83.3911 49.2433 82.94 48.8868 82.5533C48.5303 82.1667 48.1144 81.9733 47.639 81.9733C47.1637 81.9733 46.7478 82.1667 46.3913 82.5533C46.0348 82.94 45.8565 83.3911 45.8565 83.9067V85.84C45.8565 86.3556 45.6783 86.8711 45.3218 87.3867C44.9653 87.9022 44.4305 88.16 43.7176 88.16C43.0046 88.16 42.4104 87.9022 41.9351 87.3867C41.4597 86.8711 41.2221 86.3556 41.2221 85.84V76.1733C41.2221 75.4 41.4597 74.82 41.9351 74.4333C42.4104 74.0467 42.9451 73.8533 43.5393 73.8533C44.1335 73.8533 44.6682 74.0467 45.1435 74.4333C45.6189 74.82 45.916 75.3356 46.0348 75.98C46.1536 76.6244 46.3913 77.0756 46.7478 77.3333C47.1043 77.5911 47.5796 77.72 48.1738 77.72C48.7679 77.72 49.1838 77.4622 49.4215 76.9467C49.8968 75.6578 50.9663 74.5622 52.63 73.66C54.2936 72.7578 56.1949 72.1778 58.3339 71.92C60.4729 71.6622 62.1366 72.5 63.3249 74.4333C64.5132 76.3667 65.1074 78.6222 65.1074 81.2C65.1074 83.7778 64.5132 85.9689 63.3249 87.7733C62.1366 89.5778 60.4729 90.3511 58.3339 90.0933C57.1456 89.8356 56.0761 89.5778 55.1255 89.32C54.6501 89.0622 54.1748 89.0622 53.6995 89.32C53.2241 89.5778 52.9271 89.9644 52.8082 90.48C52.6894 90.9956 52.7488 91.5111 52.9865 92.0267C53.2241 92.5422 53.5806 92.9289 54.056 93.1867C55.2443 93.4444 56.5514 93.7022 57.9774 93.96C61.7801 94.2178 64.632 92.6711 66.5334 89.32C68.197 86.4844 68.91 83.3267 68.6723 79.8467C68.4347 76.3667 67.3652 73.4667 65.4639 71.1467C63.5626 68.8267 61.0671 67.7956 57.9774 68.0533C53.9371 68.5689 50.7287 69.9867 48.352 72.3067C47.1637 70.76 45.6189 69.9867 43.7176 69.9867C41.8162 69.9867 40.2714 70.76 39.0831 72.3067C37.4194 70.5022 35.1616 69.2133 32.3097 68.44C31.8343 68.44 31.359 68.5689 30.8837 68.8267C30.4083 69.0844 30.1113 69.4711 29.9924 69.9867C29.8736 70.5022 29.933 71.0178 30.1707 71.5333C30.4083 72.0489 30.7648 72.3067 31.2402 72.3067C34.5675 73.08 36.7064 74.4978 37.6571 76.56V85.4533C37.1818 86.4844 36.1123 87.4511 34.4486 88.3533C32.785 89.2556 31.0025 89.8356 29.1012 90.0933C26.2492 90.3511 24.2291 88.9333 23.0407 85.84C22.3277 83.52 22.1495 81.1356 22.506 78.6867C22.8625 76.2378 23.7537 74.3689 25.1797 73.08C25.655 72.5644 25.8927 72.0489 25.8927 71.5333C25.8927 71.0178 25.655 70.5022 25.1797 69.9867L24.8232 69.6C21.0206 66.7644 17.6933 63.5422 14.8413 59.9333C9.61269 52.9733 6.16655 45.1111 4.5029 36.3467C3.31458 29.3867 3.49282 23.3933 5.03764 18.3667C6.58246 13.34 9.49385 9.47334 13.7718 6.76667C18.0498 4.06 22.9813 3.15778 28.5664 4.06C34.1516 4.96223 39.0831 7.34667 43.3611 11.2133C43.5987 11.7289 43.9552 11.9867 44.4305 11.9867C44.9059 11.9867 45.2624 11.7289 45.5 11.2133C49.778 7.34667 54.7095 4.96223 60.2947 4.06C65.8798 3.15778 70.8113 4.06 75.0893 6.76667C79.3672 9.47334 82.2786 13.34 83.8235 18.3667C85.3683 23.3933 85.5465 29.3867 84.3582 36.3467C83.4075 42.0178 81.6251 47.3022 79.0107 52.2C76.3964 57.0978 73.0691 61.48 69.0288 65.3467C68.7912 65.8622 68.6723 66.3778 68.6723 66.8933C68.6723 67.4089 68.7912 67.86 69.0288 68.2467C69.2665 68.6333 69.623 68.8267 70.0983 68.8267C70.5737 68.8267 71.049 68.6978 71.5243 68.44C76.5153 63.5422 80.5556 57.6133 83.6452 50.6533C86.4972 44.7244 88.1608 38.6022 88.6362 32.2867C89.1115 25.9711 88.5173 20.6222 86.8537 16.24ZM61.1859 21.6533C58.5716 20.1067 55.779 19.4622 52.8082 19.72C49.8374 19.9778 47.0449 21.0089 44.4305 22.8133C42.0539 21.0089 39.3208 19.9778 36.2311 19.72C33.1415 19.4622 30.2895 20.1067 27.6752 21.6533C24.8232 23.4578 22.9813 26.2289 22.1495 29.9667C21.3177 33.7044 21.4959 37.6356 22.6842 41.76C23.8726 45.8844 25.655 49.4933 28.0317 52.5867C31.5967 57.2267 36.1123 60.1911 41.5786 61.48C43.4799 61.9956 45.3812 61.9956 47.2825 61.48C52.7488 60.1911 57.2644 57.2267 60.8294 52.5867C63.2061 49.4933 64.9885 45.8844 66.1769 41.76C67.3652 37.6356 67.6028 33.7044 66.8899 29.9667C66.1769 26.2289 64.2755 23.4578 61.1859 21.6533ZM63.3249 38.28C62.6119 42.4044 60.9482 46.2711 58.3339 49.88C55.2443 53.7467 51.3228 56.4533 46.5695 58C45.1435 58.2578 43.8364 58.2578 42.6481 58C37.6571 56.4533 33.6168 53.7467 30.5272 49.88C27.9129 46.2711 26.2492 42.4044 25.5362 38.28C24.5856 33.3822 25.1203 29.6444 27.1405 27.0667C29.1606 24.4889 31.7749 23.2644 34.9834 23.3933C38.1919 23.5222 40.9844 24.7467 43.3611 27.0667C43.5987 27.3244 43.9552 27.4533 44.4305 27.4533C44.9059 27.4533 45.2624 27.3244 45.5 27.0667C47.8767 24.7467 50.6692 23.5222 53.8777 23.3933C57.0862 23.2644 59.7005 24.4889 61.7206 27.0667C63.7408 29.6444 64.2755 33.3822 63.3249 38.28Z" fill="white"/>
</svg>
