<svg width="41" height="41" viewBox="0 0 41 41" fill="none" xmlns="http://www.w3.org/2000/svg">
<g clip-path="url(#clip0_146_42)">
<path d="M37.2191 32.6699H35.1955V30.9162C35.1955 30.7363 35.1281 30.5789 34.9932 30.444C34.8583 30.3091 34.7009 30.2416 34.521 30.2416C34.3412 30.2416 34.1838 30.3091 34.0489 30.444C33.914 30.5789 33.8465 30.7363 33.8465 30.9162V32.6699H7.13593V28.2181C7.22586 27.9483 7.18089 27.7235 7.00102 27.5436C6.82116 27.3637 6.64129 27.2963 6.46142 27.3413C6.28155 27.3862 6.14665 27.3637 6.05671 27.2738C5.96678 27.1839 5.92181 27.049 5.92181 26.8691V21.2032C5.92181 20.8435 6.05671 20.5287 6.32651 20.2589C6.59632 19.9891 6.91109 19.8542 7.27083 19.8542H33.7116C34.0714 19.8542 34.3861 19.9891 34.6559 20.2589C34.9257 20.5287 35.0606 20.8435 35.0606 21.2032V26.8691C35.0606 27.049 35.0157 27.1839 34.9257 27.2738C34.8358 27.3637 34.7009 27.3637 34.521 27.2738C33.2619 27.004 32.0928 27.2288 31.0136 27.9483C30.474 28.3081 29.8669 28.4879 29.1924 28.4879C28.5179 28.4879 27.9108 28.3081 27.3712 27.9483C26.5618 27.4087 25.7074 27.1389 24.8081 27.1389C23.9087 27.1389 23.0993 27.4087 22.3798 27.9483C21.7503 28.3081 21.1208 28.4879 20.4912 28.4879C19.8617 28.4879 19.2321 28.3081 18.6026 27.9483C17.8831 27.4087 17.0737 27.1389 16.1744 27.1389C15.275 27.1389 14.4206 27.4087 13.6112 27.9483C13.0716 28.3081 12.4646 28.4879 11.79 28.4879C11.1155 28.4879 10.5085 28.3081 9.96887 27.9483C9.789 27.8584 9.60913 27.8359 9.42926 27.8809C9.24939 27.9258 9.11449 28.0158 9.02455 28.1507C8.93462 28.2856 8.91214 28.443 8.9571 28.6228C9.00207 28.8027 9.11449 28.9376 9.29436 29.0275C10.0138 29.5671 10.8232 29.8369 11.7226 29.8369C12.6219 29.8369 13.4763 29.5671 14.2857 29.0275C14.8253 28.6678 15.4324 28.4879 16.1069 28.4879C16.7814 28.4879 17.3885 28.6678 17.9281 29.0275C18.7375 29.5671 19.5919 29.8369 20.4912 29.8369C21.3906 29.8369 22.2449 29.5671 23.0544 29.0275C23.594 28.6678 24.201 28.4879 24.8755 28.4879C25.55 28.4879 26.1571 28.6678 26.6967 29.0275C27.5061 29.5671 28.3605 29.8369 29.2598 29.8369C30.1592 29.8369 30.9911 29.5896 31.7555 29.095C32.52 28.6003 33.3519 28.443 34.2512 28.6228C34.7908 28.7128 35.2855 28.5779 35.7351 28.2181C36.1848 27.8584 36.4097 27.4087 36.4097 26.8691V21.2032C36.4097 20.3938 36.1398 19.7418 35.6002 19.2471C35.0606 18.7525 34.4311 18.5052 33.7116 18.5052H32.7673V17.1562C32.7673 16.8864 32.6998 16.7065 32.5649 16.6165C32.43 16.5266 32.2727 16.4816 32.0928 16.4816C31.9129 16.4816 31.7555 16.5266 31.6206 16.6165C31.4857 16.7065 31.4183 16.8864 31.4183 17.1562V18.5052H9.69906V14.1883C9.69906 13.9185 9.60913 13.7162 9.42926 13.5813C9.24939 13.4464 9.092 13.4014 8.9571 13.4464C8.8222 13.4913 8.73227 13.4913 8.6873 13.4464C8.64233 13.4014 8.61985 13.3339 8.61985 13.244V9.73655C8.61985 9.28688 8.77723 8.90465 9.092 8.58988C9.40678 8.27511 9.789 8.11772 10.2387 8.11772H30.7438C31.1934 8.11772 31.5757 8.27511 31.8904 8.58988C32.2052 8.90465 32.3626 9.28688 32.3626 9.73655V13.244C32.3626 13.3339 32.3401 13.4014 32.2951 13.4464C32.2502 13.4913 32.1827 13.5138 32.0928 13.5138C31.0136 13.244 30.0243 13.4239 29.1249 14.0534C28.6753 14.3232 28.1806 14.4581 27.641 14.4581C27.1014 14.4581 26.6517 14.3232 26.292 14.0534C25.5725 13.6037 24.8306 13.3789 24.0661 13.3789C23.3017 13.3789 22.6047 13.6037 21.9751 14.0534C21.5255 14.3232 21.0308 14.4581 20.4912 14.4581C19.9516 14.4581 19.457 14.3232 19.0073 14.0534C18.3778 13.6037 17.6808 13.3789 16.9163 13.3789C16.1519 13.3789 15.4099 13.6037 14.6904 14.0534C13.881 14.5031 13.0266 14.5481 12.1273 14.1883C11.9474 14.0984 11.79 14.0759 11.6551 14.1209C11.5202 14.1658 11.4078 14.2782 11.3179 14.4581C11.228 14.638 11.2055 14.8179 11.2504 14.9977C11.2954 15.1776 11.4078 15.3125 11.5877 15.4024C12.2172 15.6722 12.8693 15.7847 13.5438 15.7397C14.2183 15.6947 14.8253 15.5148 15.3649 15.2001C15.9046 14.8853 16.4217 14.7279 16.9163 14.7279C17.411 14.7279 17.8831 14.8628 18.3328 15.1326C18.9623 15.5823 19.6818 15.8071 20.4912 15.8071C21.3006 15.8071 22.0201 15.5823 22.6497 15.1326C23.0993 14.8628 23.5715 14.7279 24.0661 14.7279C24.5608 14.7279 25.0329 14.8628 25.4826 15.1326C26.2021 15.5823 26.944 15.8071 27.7085 15.8071C28.4729 15.8071 29.1699 15.6048 29.7995 15.2001C30.429 14.7954 31.1035 14.683 31.823 14.8628C32.3626 14.9528 32.8123 14.8403 33.172 14.5256C33.5317 14.2108 33.7116 13.7836 33.7116 13.244V9.73655C33.7116 8.92714 33.4193 8.23014 32.8348 7.64557C32.2502 7.06099 31.5532 6.76871 30.7438 6.76871H18.3328C17.3435 5.95929 16.714 4.92504 16.4442 3.66596C16.2643 2.67668 16.3767 1.9572 16.7814 1.50753C17.1861 1.05785 17.7032 0.833018 18.3328 0.833018C18.9623 0.833018 19.5469 1.05785 20.0865 1.50753C20.1765 1.59746 20.3114 1.64243 20.4912 1.64243C20.6711 1.64243 20.806 1.59746 20.8959 1.50753C21.3456 1.14779 21.8402 0.922953 22.3798 0.833018C22.9195 0.743084 23.3916 0.833018 23.7963 1.10282C24.201 1.37263 24.4483 1.79982 24.5383 2.38439C24.6282 2.96897 24.5832 3.57603 24.4034 4.20557C24.4034 4.38544 24.4483 4.54282 24.5383 4.67772C24.6282 4.81263 24.7406 4.90256 24.8755 4.94753C25.0104 4.9925 25.1678 4.97001 25.3477 4.88008C25.5276 4.79014 25.6625 4.65524 25.7524 4.47537C26.0222 3.57603 26.0672 2.69916 25.8873 1.84478C25.7074 0.990404 25.2128 0.338378 24.4034 -0.111295C23.8638 -0.381099 23.2342 -0.493518 22.5148 -0.44855C21.7953 -0.403583 21.1208 -0.20123 20.4912 0.158509C19.8617 -0.20123 19.1872 -0.403583 18.4677 -0.44855C17.7482 -0.493518 17.1187 -0.381099 16.5791 -0.111295C15.4998 0.518247 14.9827 1.5525 15.0277 2.99145C15.0727 4.4304 15.5448 5.68949 16.4442 6.76871H10.2387C9.42926 6.76871 8.73227 7.06099 8.14769 7.64557C7.56312 8.23014 7.27083 8.92714 7.27083 9.73655V13.244C7.27083 13.6037 7.36076 13.9185 7.54063 14.1883C7.7205 14.4581 7.99031 14.638 8.35004 14.7279V18.5052H7.27083C6.55135 18.5052 5.92181 18.7525 5.3822 19.2471C4.84259 19.7418 4.57279 20.3938 4.57279 21.2032V26.8691C4.57279 27.2288 4.68521 27.5886 4.91004 27.9483C5.13488 28.3081 5.42717 28.5329 5.78691 28.6228V32.6699H3.76338C3.58351 32.6699 3.42612 32.7373 3.29122 32.8722C3.15632 33.0071 3.08887 33.1645 3.08887 33.3444C3.08887 33.5243 3.15632 33.6816 3.29122 33.8166C3.42612 33.9515 3.58351 34.0189 3.76338 34.0189H21.1657C21.1657 35.6377 21.5704 37.1666 22.3798 38.6056H18.6026C18.9623 38.066 19.2321 37.5264 19.412 36.9867C19.412 36.8069 19.367 36.627 19.2771 36.4471C19.1872 36.2673 19.0523 36.1549 18.8724 36.1099C18.6925 36.0649 18.5351 36.0874 18.4002 36.1773C18.2653 36.2673 18.1529 36.4022 18.063 36.582C17.8831 37.3015 17.5683 37.976 17.1187 38.6056H15.3649C15.1851 38.6056 15.0277 38.673 14.8928 38.8079C14.7579 38.9428 14.6904 39.1002 14.6904 39.2801C14.6904 39.4599 14.7579 39.6173 14.8928 39.7522C15.0277 39.8871 15.1851 39.9546 15.3649 39.9546H25.6175C25.7974 39.9546 25.9548 39.8871 26.0897 39.7522C26.2246 39.6173 26.292 39.4599 26.292 39.2801C26.292 39.1002 26.2246 38.9428 26.0897 38.8079C25.9548 38.673 25.7974 38.6056 25.6175 38.6056H23.8638C22.9644 37.1666 22.5148 35.6377 22.5148 34.0189H37.2191C37.3989 34.0189 37.5563 33.9515 37.6912 33.8166C37.8261 33.6816 37.8936 33.5243 37.8936 33.3444C37.8936 33.1645 37.8261 33.0071 37.6912 32.8722C37.5563 32.7373 37.3989 32.6699 37.2191 32.6699ZM21.3006 25.5201V24.5758C21.3006 24.3959 21.2332 24.2385 21.0983 24.1036C20.9634 23.9687 20.806 23.9013 20.6261 23.9013C20.4463 23.9013 20.2889 23.9687 20.154 24.1036C20.0191 24.2385 19.9516 24.3959 19.9516 24.5758V25.5201C19.9516 25.6999 20.0191 25.8573 20.154 25.9922C20.2889 26.1271 20.4463 26.1946 20.6261 26.1946C20.806 26.1946 20.9634 26.1271 21.0983 25.9922C21.2332 25.8573 21.3006 25.6999 21.3006 25.5201ZM12.2622 25.5201V24.5758C12.2622 24.3959 12.1948 24.2385 12.0598 24.1036C11.9249 23.9687 11.7676 23.9013 11.5877 23.9013C11.4078 23.9013 11.2504 23.9687 11.1155 24.1036C10.9806 24.2385 10.9132 24.3959 10.9132 24.5758V25.5201C10.9132 25.6999 10.9806 25.8573 11.1155 25.9922C11.2504 26.1271 11.4078 26.1946 11.5877 26.1946C11.7676 26.1946 11.9249 26.1271 12.0598 25.9922C12.1948 25.8573 12.2622 25.6999 12.2622 25.5201ZM30.2042 25.5201V24.5758C30.2042 24.3959 30.1367 24.2385 30.0018 24.1036C29.8669 23.9687 29.7095 23.9013 29.5297 23.9013C29.3498 23.9013 29.1924 23.9687 29.0575 24.1036C28.9226 24.2385 28.8551 24.3959 28.8551 24.5758V25.5201C28.8551 25.6999 28.9226 25.8573 29.0575 25.9922C29.1924 26.1271 29.3498 26.1946 29.5297 26.1946C29.7095 26.1946 29.8669 26.1271 30.0018 25.9922C30.1367 25.8573 30.2042 25.6999 30.2042 25.5201Z" fill="#B40101"/>
</g>
<defs>
<clipPath id="clip0_146_42">
<rect width="40.4894" height="40.4706" fill="white" transform="matrix(1 0 0 -1 0.272461 40.4702)"/>
</clipPath>
</defs>
</svg>
