<svg width="41" height="42" viewBox="0 0 41 42" fill="none" xmlns="http://www.w3.org/2000/svg">
<path d="M29.7974 33.4394C29.6175 33.2595 29.4377 33.192 29.2578 33.237C29.0779 33.282 28.943 33.3494 28.8531 33.4394C26.245 36.5871 22.9624 38.6556 19.0053 39.6448C17.926 40.0046 16.8019 40.0046 15.6327 39.6448C13.0246 39.0153 10.7313 37.8911 8.75271 36.2723C6.95401 34.8333 5.47009 33.0796 4.30094 31.0111C3.22173 29.2124 2.50225 27.3688 2.14251 25.4801C1.69284 23.0519 1.76029 20.9609 2.34486 19.2072C2.92944 17.4535 4.05362 16.1045 5.71741 15.1601C7.3812 14.2158 9.26983 13.9011 11.3833 14.2158C13.4968 14.5306 15.3629 15.3625 16.9817 16.7115C17.0717 16.8014 17.2066 16.8464 17.3864 16.8464C17.5663 16.8464 17.7012 16.8014 17.7911 16.7115C19.41 15.2726 21.2986 14.4182 23.457 14.1484C25.6155 13.8786 27.5041 14.2383 29.1229 15.2276C29.3028 15.3175 29.4826 15.34 29.6625 15.295C29.8424 15.2501 29.9773 15.1377 30.0672 14.9578C30.1571 14.7779 30.1796 14.598 30.1347 14.4182C30.0897 14.2383 29.9773 14.1034 29.7974 14.0135L29.3927 13.7437V12.7994C29.3927 10.6409 28.8531 8.63988 27.7739 6.79622C26.6947 4.95256 25.2332 3.49112 23.3896 2.4119C21.5459 1.33269 19.5449 0.793081 17.3864 0.793081C14.6884 0.793081 12.2602 1.62498 10.1017 3.28877C7.9433 4.95256 6.50434 7.08851 5.78486 9.69661C5.78486 9.87648 5.82983 10.0563 5.91977 10.2362C6.0097 10.4161 6.1446 10.5285 6.32447 10.5735C6.50434 10.6184 6.66173 10.596 6.79663 10.506C6.93153 10.4161 7.04395 10.2812 7.13388 10.1013C7.76343 7.76302 9.02251 5.8519 10.9111 4.36798C12.7998 2.88406 14.9582 2.1421 17.3864 2.1421C19.2751 2.1421 21.0513 2.61426 22.7151 3.55857C24.3788 4.50288 25.6829 5.78445 26.6272 7.40328C27.5715 9.0221 28.0437 10.8208 28.0437 12.7994V13.2041C26.3349 12.6645 24.5138 12.5745 22.5802 12.9343C20.6466 13.294 18.9153 14.1034 17.3864 15.3625C15.4978 13.8336 13.3394 12.9792 10.9111 12.7994V12.5296C10.9111 10.8208 11.5407 9.31439 12.7998 8.01034C14.0589 6.70628 15.5877 6.05426 17.3864 6.05426C18.6455 6.05426 19.8147 6.414 20.8939 7.13347C21.9731 7.85295 22.7825 8.79726 23.3221 9.96641C23.4121 10.1463 23.547 10.2812 23.7268 10.3711C23.9067 10.4611 24.0866 10.4611 24.2664 10.3711C24.4463 10.2812 24.5587 10.1463 24.6037 9.96641C24.6487 9.78655 24.6262 9.60668 24.5362 9.42681C23.9067 7.98785 22.9399 6.84119 21.6358 5.98681C20.3318 5.13243 18.9603 4.70524 17.5213 4.70524C16.0824 4.70524 14.7558 5.06498 13.5417 5.78445C12.3276 6.50393 11.3608 7.47073 10.6413 8.68485C9.92186 9.89896 9.56212 11.2255 9.56212 12.6645C7.67349 12.7544 5.98722 13.294 4.50329 14.2833C3.01937 15.2726 1.91767 16.6216 1.1982 18.3303C0.388785 20.3988 0.253883 22.872 0.793491 25.7499C1.51297 29.1675 3.04186 32.2252 5.38016 34.9233C8.0782 37.9811 11.4058 40.0046 15.3629 40.9939C16.7119 41.3536 18.0609 41.3536 19.41 40.9939C23.6369 39.9147 27.0994 37.7113 29.7974 34.3837C29.9773 34.2038 30.0447 34.0239 29.9998 33.8441C29.9548 33.6642 29.8873 33.5293 29.7974 33.4394ZM21.0288 27.7735C21.2087 27.8634 21.3885 27.8634 21.5684 27.7735C21.7483 27.6835 21.8832 27.5486 21.9731 27.3688C22.2429 26.3795 22.2204 25.4127 21.9056 24.4684C21.5909 23.5241 21.0288 22.7371 20.2194 22.1076C19.41 21.478 18.4656 21.1633 17.3864 21.1633C16.0374 21.1633 14.9132 21.6354 14.0139 22.5797C13.1145 23.5241 12.6649 24.6707 12.6649 26.0197C12.6649 26.8292 12.8672 27.5936 13.2719 28.3131C13.6766 29.0326 14.2387 29.6171 14.9582 30.0668V31.146C14.9582 31.7756 15.2055 32.3377 15.7002 32.8323C16.1948 33.3269 16.7794 33.5743 17.4539 33.5743C18.1284 33.5743 18.6905 33.3269 19.1402 32.8323C19.5898 32.3377 19.8147 31.7756 19.8147 31.146V29.6621C19.8147 29.4822 19.7472 29.3248 19.6123 29.1899C19.4774 29.055 19.32 28.9876 19.1402 28.9876C18.9603 28.9876 18.8029 29.055 18.668 29.1899C18.5331 29.3248 18.4656 29.4822 18.4656 29.6621V31.146C18.4656 31.4158 18.3532 31.6631 18.1284 31.888C17.9036 32.1128 17.6562 32.2252 17.3864 32.2252C17.1166 32.2252 16.8693 32.1128 16.6445 31.888C16.4196 31.6631 16.3072 31.4158 16.3072 31.146V29.6621C16.3072 29.3923 16.1723 29.1675 15.9025 28.9876C15.3629 28.7178 14.9132 28.3131 14.5535 27.7735C14.1938 27.2339 14.0139 26.6493 14.0139 26.0197C14.0139 25.0305 14.3511 24.1986 15.0256 23.5241C15.7002 22.8496 16.4871 22.5123 17.3864 22.5123C18.5556 22.5123 19.4774 22.9845 20.1519 23.9288C20.8264 24.8731 20.9838 25.8848 20.6241 26.9641C20.6241 27.1439 20.669 27.3238 20.759 27.5037C20.8489 27.6835 20.9388 27.7735 21.0288 27.7735ZM38.8358 17.5209C37.3969 16.1719 35.7106 15.5199 33.777 15.5648C31.8434 15.6098 30.2021 16.3068 28.8531 17.6558C27.6839 18.825 27.0094 20.174 26.8296 21.7029C26.6497 23.2318 26.9195 24.6932 27.639 26.0872C28.3585 27.4812 29.4826 28.493 31.0115 29.1225V30.2017L31.5511 31.5507C31.6411 31.7306 31.6411 31.9105 31.5511 32.0903L31.2813 32.495C31.0115 33.1246 31.0115 33.7092 31.2813 34.2488L31.5511 34.7884C31.5511 34.9682 31.5511 35.1481 31.5511 35.328L31.0115 36.5421C31.0115 36.632 31.0115 36.8569 31.0115 37.2166C31.0115 37.8462 31.2364 38.3408 31.686 38.7005L32.6304 39.5099C32.9901 39.8697 33.4173 40.0496 33.9119 40.0496C34.4066 40.0496 34.8338 39.8697 35.1935 39.5099L36.1378 38.7005C36.5875 38.3408 36.8123 37.8462 36.8123 37.2166V32.3601C36.8123 32.1803 36.7449 32.0229 36.61 31.888C36.4751 31.7531 36.3177 31.6856 36.1378 31.6856C35.9579 31.6856 35.8005 31.7531 35.6656 31.888C35.5307 32.0229 35.4633 32.1803 35.4633 32.3601V37.2166C35.4633 37.3965 35.4183 37.5764 35.3284 37.7562L34.3841 38.5656C34.2042 38.6556 34.0468 38.7005 33.9119 38.7005C33.777 38.7005 33.6196 38.6556 33.4398 38.5656L32.4955 37.7562C32.4055 37.5764 32.3605 37.3965 32.3605 37.2166V37.0817C32.3605 36.9018 32.4055 36.632 32.4955 36.2723L32.7653 35.8676C32.9451 35.328 32.9451 34.7884 32.7653 34.2488L32.4955 33.7092C32.4055 33.5293 32.4055 33.3494 32.4955 33.1696L32.7653 32.7648C33.0351 32.1353 33.0351 31.5507 32.7653 31.0111L32.6304 30.4715C32.4505 30.0218 32.3605 29.752 32.3605 29.6621V28.7178C32.3605 28.448 32.1807 28.2231 31.8209 28.0433C30.6518 27.5936 29.73 26.8516 29.0555 25.8174C28.3809 24.7831 28.0887 23.6814 28.1786 22.5123C28.1786 20.9834 28.7182 19.7018 29.7974 18.6676C30.8766 17.6333 32.2032 17.0713 33.777 16.9813C35.3509 16.8914 36.7224 17.4085 37.8915 18.5327C39.0607 19.6569 39.6453 21.0284 39.6453 22.6472C39.6453 23.9063 39.308 25.008 38.6335 25.9523C37.959 26.8966 37.0821 27.5936 36.0029 28.0433C35.823 28.1332 35.6881 28.2681 35.5982 28.448C35.5083 28.6279 35.4858 28.8077 35.5307 28.9876C35.5757 29.1675 35.6881 29.2799 35.868 29.3248C36.0479 29.3698 36.2277 29.3923 36.4076 29.3923C38.0264 28.7628 39.2405 27.7285 40.05 26.2896C40.8594 24.8506 41.1517 23.3217 40.9268 21.7029C40.702 20.0841 40.005 18.6901 38.8358 17.5209ZM33.8445 24.4009C33.3948 24.4009 33.0126 24.2435 32.6978 23.9288C32.383 23.614 32.2256 23.1868 32.2256 22.6472C32.2256 22.4673 32.1582 22.3099 32.0233 22.175C31.8884 22.0401 31.731 21.9727 31.5511 21.9727C31.3713 21.9727 31.2139 22.0401 31.079 22.175C30.9441 22.3099 30.8766 22.4673 30.8766 22.6472C30.8766 23.5465 31.1689 24.2885 31.7535 24.8731C32.3381 25.4577 33.0575 25.7499 33.9119 25.7499C34.7663 25.7499 35.4858 25.4577 36.0704 24.8731C36.6549 24.2885 36.9472 23.569 36.9472 22.7147C36.9472 21.8603 36.6549 21.1408 36.0704 20.5562C35.4858 19.9716 34.7438 19.6794 33.8445 19.6794C33.6646 19.6794 33.5072 19.7468 33.3723 19.8817C33.2374 20.0166 33.17 20.174 33.17 20.3539C33.17 20.5337 33.2374 20.6911 33.3723 20.826C33.5072 20.9609 33.6646 21.0284 33.8445 21.0284C34.3841 21.0284 34.8113 21.1858 35.126 21.5005C35.4408 21.8153 35.5982 22.22 35.5982 22.7147C35.5982 23.2093 35.4408 23.614 35.126 23.9288C34.8113 24.2435 34.3841 24.4009 33.8445 24.4009Z" fill="#B40101"/>
</svg>
