<svg width="43" height="43" viewBox="0 0 43 43" fill="none" xmlns="http://www.w3.org/2000/svg">
<g id="Icon" clip-path="url(#clip0_326_97)">
<path id="Vector" d="M38.5102 17.0802C38.4169 16.9869 38.2769 16.9402 38.0902 16.9402C37.9036 16.9402 37.7402 17.0335 37.6002 17.2202C37.4602 17.4069 37.3902 17.5935 37.3902 17.7802C37.3902 17.9669 37.4836 18.1069 37.6702 18.2002C38.0436 18.4802 38.1836 18.8535 38.0902 19.3202V39.9002C38.0902 40.2735 37.9736 40.6002 37.7402 40.8802C37.5069 41.1602 37.2036 41.3002 36.8302 41.3002H3.93023C3.46357 41.3002 3.11357 41.1602 2.88023 40.8802C2.6469 40.6002 2.53023 40.2735 2.53023 39.9002V22.1202L10.3702 28.5602C10.4636 28.6535 10.6502 28.7002 10.9302 28.7002C11.2102 28.7002 11.3969 28.5602 11.4902 28.2802C11.5836 28.0002 11.4902 27.7202 11.2102 27.4402L2.53023 20.3002V19.3202C2.53023 18.8535 2.67023 18.4802 2.95023 18.2002C3.1369 18.1069 3.23023 17.9669 3.23023 17.7802C3.23023 17.5935 3.16023 17.4069 3.02023 17.2202C2.88023 17.0335 2.7169 16.9402 2.53023 16.9402C2.34357 16.9402 2.20357 16.9869 2.11023 17.0802C1.4569 17.6402 1.08357 18.3869 0.990234 19.3202V39.9002C0.990234 40.6469 1.27023 41.3002 1.83023 41.8602C2.39023 42.4202 3.04357 42.7002 3.79023 42.7002H36.8302C37.5769 42.7002 38.2302 42.4202 38.7902 41.8602C39.3502 41.3002 39.6302 40.6469 39.6302 39.9002V19.3202C39.6302 18.3869 39.2569 17.6402 38.5102 17.0802ZM5.33023 19.4602C5.5169 19.4602 5.68023 19.3902 5.82023 19.2502C5.96023 19.1102 6.03023 18.9469 6.03023 18.7602V3.50019C6.03023 3.12686 6.17023 2.80019 6.45023 2.5202C6.73023 2.2402 7.0569 2.1002 7.43023 2.1002H33.1902C33.5636 2.1002 33.8902 2.2402 34.1702 2.5202C34.4502 2.80019 34.5902 3.12686 34.5902 3.50019V23.2402L27.3102 29.2602C27.4969 28.1402 27.4269 27.1602 27.1002 26.3202C26.7736 25.4802 26.2136 24.8269 25.4202 24.3602C24.6269 23.8935 23.7636 23.7069 22.8302 23.8002C21.8969 23.8935 21.0569 24.1735 20.3102 24.6402C19.5636 24.1735 18.7236 23.8935 17.7902 23.8002C16.8569 23.7069 15.9936 23.8935 15.2002 24.3602C14.4069 24.8269 13.8469 25.4802 13.5202 26.3202C13.1936 27.1602 13.1236 28.1402 13.3102 29.2602L6.73023 34.3002C6.45023 34.4869 6.3569 34.7435 6.45023 35.0702C6.54357 35.3969 6.7069 35.5602 6.94023 35.5602C7.17357 35.5602 7.38357 35.5135 7.57023 35.4202L13.7302 30.8002C14.1969 32.0135 14.9202 33.0635 15.9002 33.9502C16.8802 34.8369 18.0702 35.4669 19.4702 35.8402C20.0302 35.9335 20.5902 35.9335 21.1502 35.8402C22.5502 35.4669 23.7402 34.8369 24.7202 33.9502C25.7002 33.0635 26.4236 32.0135 26.8902 30.8002L33.0502 35.4202C33.2369 35.5135 33.4469 35.5602 33.6802 35.5602C33.9136 35.5602 34.0769 35.3969 34.1702 35.0702C34.2636 34.7435 34.1702 34.4869 33.8902 34.3002L28.4302 30.1002L35.8502 23.9402C35.9436 23.8469 35.9902 23.4269 35.9902 22.6802V3.50019C35.9902 2.75353 35.7102 2.1002 35.1502 1.5402C34.5902 0.980194 33.9369 0.700195 33.1902 0.700195H7.43023C6.68357 0.700195 6.03023 0.980194 5.47023 1.5402C4.91023 2.1002 4.63023 2.75353 4.63023 3.50019V18.7602C4.63023 18.9469 4.70023 19.1102 4.84023 19.2502C4.98023 19.3902 5.14357 19.4602 5.33023 19.4602ZM20.8702 34.4402C20.4969 34.5335 20.1236 34.5335 19.7502 34.4402C18.3502 34.0669 17.1836 33.3202 16.2502 32.2002C15.5036 31.2669 15.0136 30.1935 14.7802 28.9802C14.5469 27.7669 14.7102 26.8335 15.2702 26.1802C15.8302 25.5269 16.5769 25.2002 17.5102 25.2002C18.4436 25.2002 19.2369 25.5269 19.8902 26.1802C19.9836 26.2735 20.1236 26.3202 20.3102 26.3202C20.4969 26.3202 20.6369 26.2735 20.7302 26.1802C21.3836 25.5269 22.1769 25.2002 23.1102 25.2002C24.0436 25.2002 24.7902 25.5269 25.3502 26.1802C25.9102 26.8335 26.0736 27.7669 25.8402 28.9802C25.6069 30.1935 25.1169 31.2669 24.3702 32.2002C23.4369 33.3202 22.2702 34.0669 20.8702 34.4402ZM10.7902 21.1402C10.6036 21.2335 10.2302 21.1869 9.67023 21.0002C9.48357 20.9069 9.2969 20.8835 9.11023 20.9302C8.92357 20.9769 8.78357 21.0935 8.69023 21.2802C8.5969 21.4669 8.5969 21.6535 8.69023 21.8402C8.78357 22.0269 8.92357 22.1669 9.11023 22.2602C10.2302 22.7269 11.0936 22.7035 11.7002 22.1902C12.3069 21.6769 12.5169 20.7202 12.3302 19.3202C12.2369 18.2935 11.8636 16.4735 11.2102 13.8602C10.6502 11.5269 10.3236 9.84686 10.2302 8.82019C10.0436 7.4202 10.0902 6.5802 10.3702 6.30019C10.6502 6.0202 11.0702 5.97353 11.6302 6.16019C11.8169 6.16019 12.0036 6.11353 12.1902 6.0202C12.3769 5.92686 12.4936 5.78686 12.5402 5.6002C12.5869 5.41353 12.5636 5.25019 12.4702 5.1102C12.3769 4.9702 12.2369 4.85353 12.0502 4.7602C10.9302 4.48019 10.0669 4.62019 9.46023 5.18019C8.85357 5.7402 8.64357 6.95353 8.83023 8.82019C8.92357 9.84686 9.2969 11.6202 9.95023 14.1402C10.5102 16.3802 10.8369 17.9669 10.9302 18.9002C11.1169 20.1135 11.0702 20.8602 10.7902 21.1402ZM31.0902 5.18019C30.5302 4.62019 29.6902 4.48019 28.5702 4.7602C28.3836 4.85353 28.2436 4.9702 28.1502 5.1102C28.0569 5.25019 28.0336 5.41353 28.0802 5.6002C28.1269 5.78686 28.2436 5.92686 28.4302 6.0202C28.6169 6.11353 28.8036 6.16019 28.9902 6.16019C29.5502 5.97353 29.9702 6.0202 30.2502 6.30019C30.5302 6.5802 30.5769 7.4202 30.3902 8.82019C30.2969 9.84686 29.9702 11.5269 29.4102 13.8602C28.7569 16.4735 28.3836 18.2935 28.2902 19.3202C28.1036 20.7202 28.3136 21.6769 28.9202 22.1902C29.5269 22.7035 30.3902 22.7269 31.5102 22.2602C31.6969 22.1669 31.8369 22.0269 31.9302 21.8402C32.0236 21.6535 32.0236 21.4669 31.9302 21.2802C31.8369 21.0935 31.6969 20.9769 31.5102 20.9302C31.3236 20.8835 31.1369 20.9069 30.9502 21.0002C30.3902 21.1869 29.9936 21.1869 29.7602 21.0002C29.5269 20.8135 29.5036 20.1135 29.6902 18.9002C29.7836 17.9669 30.1102 16.3802 30.6702 14.1402C31.3236 11.6202 31.6969 9.84686 31.7902 8.82019C31.9769 6.95353 31.7436 5.7402 31.0902 5.18019ZM14.1502 8.96019H26.4702C26.6569 8.96019 26.8202 8.89019 26.9602 8.75019C27.1002 8.6102 27.1702 8.44686 27.1702 8.2602C27.1702 8.07353 27.1002 7.91019 26.9602 7.7702C26.8202 7.6302 26.6569 7.5602 26.4702 7.5602H14.1502C13.9636 7.5602 13.8002 7.6302 13.6602 7.7702C13.5202 7.91019 13.4502 8.07353 13.4502 8.2602C13.4502 8.44686 13.5202 8.6102 13.6602 8.75019C13.8002 8.89019 13.9636 8.96019 14.1502 8.96019ZM14.1502 13.8602H26.4702C26.6569 13.8602 26.8202 13.7902 26.9602 13.6502C27.1002 13.5102 27.1702 13.3469 27.1702 13.1602C27.1702 12.9735 27.1002 12.8102 26.9602 12.6702C26.8202 12.5302 26.6569 12.4602 26.4702 12.4602H14.1502C13.9636 12.4602 13.8002 12.5302 13.6602 12.6702C13.5202 12.8102 13.4502 12.9735 13.4502 13.1602C13.4502 13.3469 13.5202 13.5102 13.6602 13.6502C13.8002 13.7902 13.9636 13.8602 14.1502 13.8602ZM15.9702 17.3602C15.7836 17.3602 15.6202 17.4302 15.4802 17.5702C15.3402 17.7102 15.2702 17.8735 15.2702 18.0602C15.2702 18.2469 15.3402 18.4102 15.4802 18.5502C15.6202 18.6902 15.7836 18.7602 15.9702 18.7602H24.6502C24.8369 18.7602 25.0002 18.6902 25.1402 18.5502C25.2802 18.4102 25.3502 18.2469 25.3502 18.0602C25.3502 17.8735 25.2802 17.7102 25.1402 17.5702C25.0002 17.4302 24.8369 17.3602 24.6502 17.3602H15.9702Z" fill="#B40101"/>
</g>
<defs>
<clipPath id="clip0_326_97">
<rect width="42.02" height="42" fill="white" transform="matrix(1 0 0 -1 0.980469 42.7002)"/>
</clipPath>
</defs>
</svg>
