<svg width="108" height="117" viewBox="0 0 108 117" fill="none" xmlns="http://www.w3.org/2000/svg">
<path d="M104.341 45.6823C104.082 45.4237 103.694 45.2944 103.177 45.2944C102.66 45.2944 102.208 45.553 101.82 46.0701C101.432 46.5873 101.238 47.1044 101.238 47.6216C101.238 48.1387 101.497 48.5265 102.014 48.7851C103.048 49.5608 103.436 50.5951 103.177 51.8879V108.902C103.177 109.936 102.854 110.841 102.208 111.617C101.561 112.393 100.721 112.781 99.6866 112.781H8.54137C7.24853 112.781 6.2789 112.393 5.63248 111.617C4.98606 110.841 4.66285 109.936 4.66285 108.902V59.645L26.3826 77.4861C26.6411 77.7447 27.1583 77.874 27.934 77.874C28.7097 77.874 29.2268 77.4861 29.4854 76.7104C29.7439 75.9347 29.4854 75.159 28.7097 74.3833L4.66285 54.6029V51.8879C4.66285 50.5951 5.05071 49.5608 5.82641 48.7851C6.34355 48.5265 6.60211 48.1387 6.60211 47.6216C6.60211 47.1044 6.40819 46.5873 6.02034 46.0701C5.63248 45.553 5.17999 45.2944 4.66285 45.2944C4.14572 45.2944 3.75787 45.4237 3.4993 45.6823C1.68932 47.2337 0.655052 49.3022 0.396484 51.8879V108.902C0.396484 110.971 1.17219 112.781 2.7236 114.332C4.275 115.883 6.08498 116.659 8.15352 116.659H99.6866C101.755 116.659 103.565 115.883 105.116 114.332C106.668 112.781 107.444 110.971 107.444 108.902V51.8879C107.444 49.3022 106.409 47.2337 104.341 45.6823ZM12.4199 52.2758C12.937 52.2758 13.3895 52.0818 13.7774 51.694C14.1652 51.3061 14.3592 50.8537 14.3592 50.3365V8.06067C14.3592 7.0264 14.747 6.12141 15.5227 5.3457C16.2984 4.57 17.2034 4.18214 18.2377 4.18214H89.6024C90.6367 4.18214 91.5417 4.57 92.3174 5.3457C93.0931 6.12141 93.4809 7.0264 93.4809 8.06067V62.7478L73.3126 79.4254C73.8298 76.3226 73.6358 73.6076 72.7309 71.2805C71.8259 68.9534 70.2745 67.1434 68.0766 65.8506C65.8788 64.5578 63.4871 64.0406 60.9014 64.2992C58.3157 64.5578 55.9886 65.3335 53.92 66.6263C51.8515 65.3335 49.5244 64.5578 46.9387 64.2992C44.353 64.0406 41.9613 64.5578 39.7634 65.8506C37.5656 67.1434 36.0142 68.9534 35.1092 71.2805C34.2042 73.6076 34.0103 76.3226 34.5274 79.4254L16.2984 93.3881C15.5227 93.9052 15.2641 94.6163 15.5227 95.5213C15.7813 96.4262 16.2338 96.8787 16.8802 96.8787C17.5266 96.8787 18.1084 96.7495 18.6255 96.4909L35.691 83.6918C36.9838 87.0532 38.9877 89.962 41.7027 92.4184C44.4177 94.8748 47.7144 96.6202 51.5929 97.6544C53.1443 97.913 54.6957 97.913 56.2472 97.6544C60.1257 96.6202 63.4224 94.8748 66.1374 92.4184C68.8523 89.962 70.8562 87.0532 72.1491 83.6918L89.2146 96.4909C89.7317 96.7495 90.3135 96.8787 90.9599 96.8787C91.6063 96.8787 92.0588 96.4262 92.3174 95.5213C92.5759 94.6163 92.3174 93.9052 91.5417 93.3881L76.4155 81.7525L96.9716 64.687C97.2302 64.4285 97.3595 63.2649 97.3595 61.1964V8.06067C97.3595 5.99213 96.5837 4.18214 95.0323 2.63074C93.4809 1.07933 91.671 0.303627 89.6024 0.303627H18.2377C16.1691 0.303627 14.3592 1.07933 12.8077 2.63074C11.2563 4.18214 10.4806 5.99213 10.4806 8.06067V50.3365C10.4806 50.8537 10.6746 51.3061 11.0624 51.694C11.4503 52.0818 11.9028 52.2758 12.4199 52.2758ZM55.4715 93.7759C54.4372 94.0345 53.4029 94.0345 52.3686 93.7759C48.4901 92.7416 45.258 90.6731 42.6723 87.5703C40.6038 84.9846 39.2463 82.0111 38.5999 78.6497C37.9535 75.2883 38.406 72.7026 39.9574 70.8927C41.5088 69.0827 43.5773 68.1777 46.163 68.1777C48.7487 68.1777 50.9465 69.0827 52.7565 70.8927C53.0151 71.1512 53.4029 71.2805 53.92 71.2805C54.4372 71.2805 54.825 71.1512 55.0836 70.8927C56.8936 69.0827 59.0914 68.1777 61.6771 68.1777C64.2628 68.1777 66.3313 69.0827 67.8827 70.8927C69.4341 72.7026 69.8866 75.2883 69.2402 78.6497C68.5938 82.0111 67.2363 84.9846 65.1677 87.5703C62.5821 90.6731 59.35 92.7416 55.4715 93.7759ZM27.5461 56.93C27.029 57.1886 25.9947 57.0593 24.4433 56.5421C23.9262 56.2836 23.409 56.2189 22.8919 56.3482C22.3748 56.4775 21.9869 56.8007 21.7283 57.3178C21.4698 57.835 21.4698 58.3521 21.7283 58.8693C21.9869 59.3864 22.3748 59.7742 22.8919 60.0328C25.9947 61.3257 28.3865 61.261 30.0672 59.8389C31.7478 58.4168 32.3296 55.7664 31.8125 51.8879C31.5539 49.0437 30.5196 44.0016 28.7097 36.7617C27.1583 30.2975 26.2533 25.6433 25.9947 22.799C25.4776 18.9205 25.6069 16.5934 26.3826 15.8177C27.1583 15.042 28.3218 14.9127 29.8732 15.4298C30.3904 15.4298 30.9075 15.3006 31.4246 15.042C31.9418 14.7834 32.265 14.3956 32.3943 13.8784C32.5235 13.3613 32.4589 12.9088 32.2003 12.521C31.9418 12.1331 31.5539 11.8099 31.0368 11.5513C27.934 10.7756 25.5422 11.1635 23.8615 12.7149C22.1808 14.2663 21.5991 17.6277 22.1162 22.799C22.3748 25.6433 23.409 30.5561 25.219 37.5374C26.7704 43.743 27.6754 48.1387 27.934 50.7244C28.4511 54.0858 28.3218 56.1543 27.5461 56.93ZM83.7846 12.7149C82.2332 11.1635 79.9061 10.7756 76.8033 11.5513C76.2862 11.8099 75.8983 12.1331 75.6397 12.521C75.3812 12.9088 75.3165 13.3613 75.4458 13.8784C75.5751 14.3956 75.8983 14.7834 76.4155 15.042C76.9326 15.3006 77.4497 15.4298 77.9669 15.4298C79.5183 14.9127 80.6818 15.042 81.4575 15.8177C82.2332 16.5934 82.3625 18.9205 81.8454 22.799C81.5868 25.6433 80.6818 30.2975 79.1304 36.7617C77.3204 44.0016 76.2862 49.0437 76.0276 51.8879C75.5105 55.7664 76.0922 58.4168 77.7729 59.8389C79.4536 61.261 81.8454 61.3257 84.9482 60.0328C85.4653 59.7742 85.8532 59.3864 86.1117 58.8693C86.3703 58.3521 86.3703 57.835 86.1117 57.3178C85.8532 56.8007 85.4653 56.4775 84.9482 56.3482C84.4311 56.2189 83.9139 56.2836 83.3968 56.5421C81.8454 57.0593 80.7465 57.0593 80.1 56.5421C79.4536 56.025 79.389 54.0858 79.9061 50.7244C80.1647 48.1387 81.0697 43.743 82.6211 37.5374C84.4311 30.5561 85.4653 25.6433 85.7239 22.799C86.241 17.6277 85.5946 14.2663 83.7846 12.7149ZM36.8546 23.1869H70.9855C71.5027 23.1869 71.9552 22.993 72.343 22.6051C72.7309 22.2173 72.9248 21.7648 72.9248 21.2476C72.9248 20.7305 72.7309 20.278 72.343 19.8901C71.9552 19.5023 71.5027 19.3084 70.9855 19.3084H36.8546C36.3374 19.3084 35.8849 19.5023 35.4971 19.8901C35.1092 20.278 34.9153 20.7305 34.9153 21.2476C34.9153 21.7648 35.1092 22.2173 35.4971 22.6051C35.8849 22.993 36.3374 23.1869 36.8546 23.1869ZM36.8546 36.7617H70.9855C71.5027 36.7617 71.9552 36.5678 72.343 36.1799C72.7309 35.7921 72.9248 35.3396 72.9248 34.8224C72.9248 34.3053 72.7309 33.8528 72.343 33.465C71.9552 33.0771 71.5027 32.8832 70.9855 32.8832H36.8546C36.3374 32.8832 35.8849 33.0771 35.4971 33.465C35.1092 33.8528 34.9153 34.3053 34.9153 34.8224C34.9153 35.3396 35.1092 35.7921 35.4971 36.1799C35.8849 36.5678 36.3374 36.7617 36.8546 36.7617ZM41.8966 46.458C41.3795 46.458 40.927 46.6519 40.5392 47.0398C40.1513 47.4276 39.9574 47.8801 39.9574 48.3973C39.9574 48.9144 40.1513 49.3669 40.5392 49.7547C40.927 50.1426 41.3795 50.3365 41.8966 50.3365H65.9435C66.4606 50.3365 66.9131 50.1426 67.3009 49.7547C67.6888 49.3669 67.8827 48.9144 67.8827 48.3973C67.8827 47.8801 67.6888 47.4276 67.3009 47.0398C66.9131 46.6519 66.4606 46.458 65.9435 46.458H41.8966Z" fill="white"/>
</svg>
