<svg width="42" height="42" viewBox="0 0 42 42" fill="none" xmlns="http://www.w3.org/2000/svg">
<g clip-path="url(#clip0_146_776)">
<path d="M33.1624 5.13436H32.0832C31.9034 5.13436 31.746 5.20181 31.6111 5.33671C31.4762 5.47162 31.4087 5.629 31.4087 5.80887C31.4087 5.98874 31.4762 6.14613 31.6111 6.28103C31.746 6.41593 31.9034 6.48338 32.0832 6.48338H33.1624C33.3423 6.48338 33.4997 6.55083 33.6346 6.68573C33.7695 6.82064 33.837 6.97802 33.837 7.15789V39.2646C33.837 39.4444 33.7695 39.6018 33.6346 39.7367C33.4997 39.8716 33.3423 39.9391 33.1624 39.9391H7.80087C7.621 39.9391 7.46362 39.8716 7.32872 39.7367C7.19381 39.6018 7.12636 39.4444 7.12636 39.2646V7.15789C7.12636 6.97802 7.19381 6.82064 7.32872 6.68573C7.46362 6.55083 7.621 6.48338 7.80087 6.48338H28.7107C28.8905 6.48338 29.0479 6.41593 29.1828 6.28103C29.3177 6.14613 29.3852 5.98874 29.3852 5.80887V2.84103C29.3852 2.21149 29.1379 1.69436 28.6432 1.28966C28.1486 0.88495 27.5865 0.727565 26.957 0.817499L16.7044 3.11083C16.5245 3.11083 16.3896 3.20077 16.2997 3.38064C16.2098 3.56051 16.1873 3.74037 16.2322 3.92024C16.2772 4.10011 16.3671 4.23502 16.5021 4.32495C16.637 4.41488 16.7943 4.45985 16.9742 4.45985L27.2268 2.16652C27.4966 2.16652 27.6989 2.23397 27.8338 2.36887C27.9687 2.50377 28.0362 2.66116 28.0362 2.84103V5.13436H7.80087C7.17133 5.13436 6.67669 5.33671 6.31695 5.74142C5.95721 6.14613 5.77734 6.61828 5.77734 7.15789V39.2646C5.77734 39.8042 5.95721 40.2763 6.31695 40.681C6.67669 41.0857 7.17133 41.2881 7.80087 41.2881H33.1624C33.792 41.2881 34.2866 41.0857 34.6464 40.681C35.0061 40.2763 35.186 39.8042 35.186 39.2646V7.15789C35.186 6.61828 35.0061 6.14613 34.6464 5.74142C34.2866 5.33671 33.792 5.13436 33.1624 5.13436ZM28.306 8.50691H12.6573C12.2976 8.50691 12.0503 8.70926 11.9154 9.11397C11.7805 9.51868 11.5332 9.92338 11.1734 10.3281C10.8137 10.7328 10.4315 10.9801 10.0268 11.07C9.62205 11.16 9.4197 11.3848 9.4197 11.7446V34.6779C9.4197 35.0376 9.62205 35.2625 10.0268 35.3524C10.4315 35.4423 10.8137 35.6672 11.1734 36.0269C11.5332 36.3866 11.7805 36.7914 11.9154 37.241C12.0503 37.6907 12.2976 37.9155 12.6573 37.9155H28.306C28.4858 37.9155 28.6432 37.8481 28.7781 37.7132C28.913 37.5783 28.9805 37.4209 28.9805 37.241C28.9805 37.0612 28.913 36.9038 28.7781 36.7689C28.6432 36.634 28.4858 36.5665 28.306 36.5665H13.0621C12.6124 35.3974 11.8479 34.588 10.7687 34.1383V12.2842C11.8479 11.8345 12.6124 11.0251 13.0621 9.85593H27.9013C28.3509 11.0251 29.1154 11.8345 30.1946 12.2842V34.6779C30.1946 34.8578 30.2621 35.0151 30.397 35.15C30.5319 35.2849 30.7117 35.3524 30.9366 35.3524C31.1614 35.3524 31.3188 35.2849 31.4087 35.15C31.4987 35.0151 31.5436 34.8578 31.5436 34.6779V11.7446C31.5436 11.3848 31.3413 11.16 30.9366 11.07C30.5319 10.9801 30.1496 10.7328 29.7899 10.3281C29.4302 9.92338 29.1828 9.51868 29.0479 9.11397C28.913 8.70926 28.6657 8.50691 28.306 8.50691ZM25.3381 14.0379C24.6187 13.5882 23.8092 13.4083 22.9099 13.4983C22.0105 13.5882 21.2011 13.858 20.4817 14.3077C19.7622 13.858 18.9528 13.5882 18.0534 13.4983C17.1541 13.4083 16.3447 13.5882 15.6252 14.0379C14.8158 14.4876 14.2762 15.2295 14.0064 16.2638C13.7366 17.298 13.7815 18.3548 14.1413 19.434C14.501 20.5132 15.0406 21.5025 15.7601 22.4018C16.7494 23.571 18.0534 24.3354 19.6722 24.6951C20.2119 24.875 20.7515 24.875 21.2911 24.6951C22.9099 24.3354 24.2139 23.571 25.2032 22.4018C25.9227 21.5025 26.4623 20.5132 26.8221 19.434C27.1818 18.3548 27.2268 17.298 26.957 16.2638C26.6871 15.2295 26.1475 14.4876 25.3381 14.0379ZM25.6079 18.4897C25.4281 19.5689 24.9784 20.5132 24.2589 21.3226C23.3596 22.4018 22.2804 23.1213 21.0213 23.481C20.6615 23.571 20.3018 23.571 19.9421 23.481C18.683 23.1213 17.6037 22.4018 16.7044 21.3226C15.9849 20.5132 15.5128 19.5239 15.2879 18.3548C15.0631 17.1856 15.2205 16.2863 15.7601 15.6567C16.2997 15.0272 16.9967 14.7349 17.8511 14.7799C18.7054 14.8248 19.4474 15.1171 20.077 15.6567C20.1669 15.7466 20.3018 15.7916 20.4817 15.7916C20.6615 15.7916 20.7964 15.7466 20.8864 15.6567C21.5159 15.1171 22.2579 14.8248 23.1122 14.7799C23.9666 14.7349 24.6636 15.0272 25.2032 15.6567C25.7428 16.2863 25.8777 17.2306 25.6079 18.4897ZM25.473 28.3375C25.473 28.1576 25.4281 28.0002 25.3381 27.8653C25.2482 27.7304 25.0683 27.663 24.7985 27.663H16.1648C15.895 27.663 15.7151 27.7304 15.6252 27.8653C15.5353 28.0002 15.4903 28.1576 15.4903 28.3375C15.4903 28.5174 15.5353 28.6748 15.6252 28.8097C15.7151 28.9446 15.895 29.012 16.1648 29.012H24.7985C25.0683 29.012 25.2482 28.9446 25.3381 28.8097C25.4281 28.6748 25.473 28.5174 25.473 28.3375ZM17.1091 31.9799C16.9292 31.9799 16.7719 32.0473 16.637 32.1822C16.5021 32.3171 16.4346 32.4745 16.4346 32.6544C16.4346 32.8342 16.5021 32.9916 16.637 33.1265C16.7719 33.2614 16.9292 33.3289 17.1091 33.3289H23.8542C24.0341 33.3289 24.1915 33.2614 24.3264 33.1265C24.4613 32.9916 24.5287 32.8342 24.5287 32.6544C24.5287 32.4745 24.4613 32.3171 24.3264 32.1822C24.1915 32.0473 24.0341 31.9799 23.8542 31.9799H17.1091Z" fill="#B40101"/>
</g>
<defs>
<clipPath id="clip0_146_776">
<rect width="40.4894" height="40.4706" fill="white" transform="matrix(1 0 0 -1 0.772461 41.2637)"/>
</clipPath>
</defs>
</svg>
